<svg xmlns="http://www.w3.org/2000/svg" viewBox="0 0 512 512"><path d="M228.2,404.8c2.8-31.1,4.1-62.5,6-93.7,1.7-28.3.7-57.2,13.2-83.3,2.6-7.4,5.8-15,6-22.9,0-.7.1-2,.4-2.1,4.6-2.1,12,14.8,14.3,18.3,2.6,5.6,3.7,11.5,4.6,17.7,3.5,19.8.2,39.5,1,59.3,2.6,23.3-.3,46.7-.5,70.1-1.3,18.7.5,37.8-3.7,56.1-.6,2.6-2.3,4.2-5.5,3.8-5.3,0-10.3,4.9-15.6,1.6C233.6,422.4,228.5,423.3,228.2,404.8Z"/><path d="M377.1,405.5c-4.3-.5-7.4-1-10.6-1.2-9.5-1.4-13.1-14.4-14.7-22.5C348,357,337.2,334,334.2,309.1c-3.3-28.7-12.5-56-19-84-1.2-6.4,0-13.3-1.1-19.7a20.3,20.3,0,0,1-.1-8.5c.4-4-1.1-8.2.4-12.2,20.3,6,27.8,28.7,34.3,46.7,12.8,27.6,18.1,57.9,29.6,86,9.1,24.6,21.6,49.6,21.2,76.4a4.7,4.7,0,0,1-2.2,3C391.4,400.7,383.9,404.9,377.1,405.5Z"/><path d="M197.2,167.9c4.6,7.8,4.8,16.4,6.3,25a22.3,22.3,0,0,1-3,14.8c-3.2,5.2-3.6,12.2-6.4,17.6s-5.8,13.8-8.1,20.8c-11.3,36.6-22.6,73-35.6,109-2.1,4.9-3.2,11.1-9.1,12.9s-8.3,9.1-13.5,4.1c-14.7-10.7-26.9-27.1-18.7-45.8s16.8-34.2,25.6-51c15.6-30.3,31.5-60.5,51.1-88.4C190,180.6,192.3,173.9,197.2,167.9Z"/><path d="M16.7,238.8c-1.2,5.9,0,12.3-1.9,18.3-.7,2.9,1.4,6.5.6,9.6-3.2,13.2,1.7,11,2.2,21.1,0,3.5,1.3,7-1.4,10.1,1.9,2.8.9,5.8.7,8.8,2.3,2.6,2.1,6.7,1.7,10,1.7,4.5.2,10.7,5.9,12.4,2.9,2.7,4.7,7.3,6.4,11,3.2,7,2.5,15.2,6.8,21.6,9.1,17.5,20.1,33.7,31.2,50-9.2-5.7-8.9-10.4-15.5-16.8l-1.1,3.5C45.3,391,39,384,33.4,375.7c-1.7-6.4-6.6-10.8-10.2-16-5.9-7.4-7.2-16.3-9.2-25.2.6-8.1-4.2-15.1-4.1-23.1s-4.4-17.3-3.2-26.3-1.4-19.4.3-29c1.1-7.3,2.5-14.6,3.7-21.9a7,7,0,0,1,1.6-4.6C16,231.4,14.1,235.3,16.7,238.8Z"/><path d="M250.8,91.8c.2-5.4,5.9-6.9,9.5-9.8,11.6-6.3,22.8,9.8,19.4,21.5s-17.4,11.6-21.6,2.3C255.8,101,252.2,96.9,250.8,91.8Z"/><path d="M226.8,124.8c-1.9,24.2-29.7,25.9-26.5-1.6,1.1-8.2,11-7.6,17.3-9.1S227,119.5,226.8,124.8Z"/><path d="M312.5,150c-5.8-.7-10.3-4.6-13.5-10.2.5-10.2,12.8-15.6,22.1-11.6s8.1,2.3,5.4,11.1C324.5,146,319.2,150.2,312.5,150Z"/><path d="M34.6,157.2c-1.3,2-4.1,4.2-4.4,6.5,2.9,4.1-.2,7.2-2.2,9.9s-2.8,6-3.6,9.8c-4.8,5.1-3.5,11.7-4.3,17.8a186,186,0,0,1-5.5,26.7H13.4c-1.8-3.6.1-7.7.3-11.4.9-6.2,1.9-12.2,4.5-17.8a101.8,101.8,0,0,1,2.3-14.5c-.6-3.8,1.4-7.6-.4-11.4,1.2-4.6,5.6-8.9,7.9-13.2,1.9-2.2,1.9,2,5.8-3.1Z"/><path d="M74.6,95c-3.1,3.6-6.7,6.8-8.7,11.3-1.7,2.6-4.6,4.6-6.3,7.2a49.7,49.7,0,0,1-9.7,12.2c-4.5,6.3-6.4,14.7-10.8,21.2-2.4,3.5-5-.5-3.5-3A23.5,23.5,0,0,0,40.5,133c3-7,8.5-12.6,14.4-17.3,3-2.6-4.3-3.4-.6-5.6,6.4-2.6,5.7-6.6,10.5-8.5s6.2-5,9.5-7.1Z"/><path d="M91.2,442.5c1.7.8,8.7,7.3,9.4,4.3-.5-.8-1.1-2-1.8-2.1-4-.7-5.6-4.1-8.1-6.7,7.8,3.7,14.7,9.8,22.1,14.5s14.7,11,23.5,14v.9c-4,.6-7.3-4.5-11-5.5-6.2,1.1-8.5-5.9-13.3-8.2s-4,3.5-8.9.8-6.9-7.2-11.5-9.4c-.5-.3-.6-1.2-1-1.8Zm12.9,10-.5.7c.4.5,1,.8,1.2.1S104.4,452.8,104.1,452.5Z"/><path d="M117.2,56.9C114,62,109.1,65,104.7,68.5l-.8-.5c.4-1.4.3-3.6,1.3-4.3C109,61.1,111.8,56.7,117.2,56.9Z"/><path d="M95.9,74.8c-3.8,4.3-7.4,7.9-12.6,10.6-1.1-1-1.7-2.3.1-4s3.5-5,6-5.5c2.7,2.1,4.2-1,6.6-1Zm-8.8,6.4h.2v-.4A.3.3,0,0,0,87.1,81.2Z"/><path d="M86.1,437.9a13.8,13.8,0,0,1-6.6-7.2c4.6,1.5,12.5,1.7,6.6,7.2Z"/><path d="M170,491.7l10.2,5.5-.2.6C177.6,497,165.7,495.7,170,491.7Z"/><path d="M86.6,428.9c-3.8,1.6-10.7-4.1-6-5.4C82.5,425.1,84.3,426.8,86.6,428.9Z"/><path d="M152.8,477.2c-5.6,2.3-9.2-5.4-4.3-4.2C149.9,474.2,151.2,475.6,152.8,477.2Z"/><path d="M189.1,30.7l5.8-1.8c-1.3,2.5-2.8,3-5.6,2.6Z"/><path d="M114.2,462.3l4.1,2.7-.5.9-4.1-2.7Z"/><path d="M76.8,421.1l-2.9-1.8.6-1,3,1.7Z"/><path d="M80.3,89.7l-3.4,3.2-.5-.5,3.4-3.2Z"/><path d="M220.4,7.8l2.3.3v.6h-2.4Z"/><path d="M130.1,473.7l2.9.7-.6,1-2.3-1.8Z"/><path d="M274.7,20l-.4-.5c.5-.3.8-.6,1.1.2Z"/><path d="M119.8,466.7l1.6.7-.4.5-1.1-1.3Z"/><polygon points="164.2 491.1 164.1 491.3 164 491.1 164.2 491.1"/><path d="M96,74.9h0Z"/><path d="M98.1,73.3Z"/><path d="M98.6,72.7c-.2.2-.5.4-.5.6S98.6,72.9,98.6,72.7Z"/><path d="M99.3,72.1c-.2.2-.7.4-.7.6Z"/><path d="M86.1,437.9Z"/><path d="M99.2,72.1h0Z"/><path d="M119.9,466.6h0Z"/><path d="M130.1,473.6h0Z"/><path d="M234.6,500.3c-.2.1-.3.1-.4-.1h.4Z" fill="#fff"/><path d="M104.1,452.5c.3.3.6.5.7.8s-.8.4-1.2-.1Z" fill="#fff"/><path d="M87.1,81.2a.3.3,0,0,1,.3-.3v.4Z" fill="#fff"/><path d="M394.4,473.7c-2.3,1.2-4.5,2.6-6.9,3.6-5.5,1.9,1.9,5.9-3.4,8-9.4,4.3-18.8,8.9-28.5,12.7-19.1,5.8-38.7,10.5-58.7,11.6-12.8-.3-25.5,3-38,2.3-2.7,0-5.4-1.6-8.1-2.1s-6.9.1-10.4-.4c-.9,0-2-.5-2.6-.2-2.8,1.5-5.5,1-8.3.3s-4.7.3-6.6-.4c-3.1-2.4-6.4-1.3-9.8-1.3s-7-1.2-10.4-2.2c-5.9-2.2-12.5-3.2-17.8-6.6l.4-1c5.6,1.2,11.4,3.4,17,4s9.9.8,14.8,2.3c10.5,0,21.1,2,31.7,2.8,2.6.3,4.5,1.9,7.3.8,5.3-1.3,11,1.1,16.4-.4s14.1,1.6,18.6-3.9c.8-1,2.7-1.2,4.2-2.5-7.7-1.1-15.6,1.5-23.4,1.3-5.9.9-17.3-3.5-21.3.3s-10.9-.8-15.9-.8-18.3,2.6-14.7-5.2c4.4-1.1,9.7,1.7,14.4,2,.9.1,2.1-.8,2.8-1.5s-1.2-2.8-2.1-3.2c1.7-2.6,3.9-2.2,7,1.6l-2.7,1.7c7.7,3.3,19,.7,27.4.3,3.3-.3,6.6-.7,9.3-2.9a3.6,3.6,0,0,1,2.1-.5c9.5.3,19.1-.7,28.4-1.8,3.9-1.4,7.6-3.5,11.6-4.6,8.2-2.6,17.1-3.1,25-6.5,2.6-1.2,5-2.9,8.2-1.7a2.3,2.3,0,0,0,1.8-.2c26.4-12.5,53.5-26.6,72.3-49.7a287.7,287.7,0,0,0,48.3-87.8c8.3-25.8,11-53.4,10.9-80.4,1.5-17.8,0-35.5-2.3-53.1-1-11.6-4-22.6-7.8-33.5-2.8-8.2-6.2-16.2-8.9-24.4-5.6-14.6-14.9-27.2-22.4-40.8-1.7-2.9-3.6-5.5-3.9-9-.1-1.3-1.4-2.7-2.4-3.8a124.4,124.4,0,0,0-23.4-20.6c-19.2-23.7-50.1-33.9-77.1-46.4,2.3-2.7,2.2-3-.9-3.9s-4.2-2-7.1-1.4l1.1,3.8-6.5-2.3,1.7-2.5c-3.5-1.6-8.2-3.8-11.9-2.2a10.3,10.3,0,0,0,4.6,2.2l-.2,1a4.9,4.9,0,0,1-2.4.1c-5.6-2.5-11.9-1.5-17.6-3.2s-12.6-.7-19.1-1.1c0-.4-.1-.9-.1-1.3,3.2-.6,19.3-.4,19.7-3.1.3-4.4,6.5-1.6,9.4-2.8-9.9-7.8-20.9.1-31.9-1.7a3.5,3.5,0,0,1-2.3-.6c-5.2-6.7-14.4-.7-16.2-5.3-1.6-2.5.4-5.5,3.3-5.6,11.6.6,23.5-1.1,34.6,3.1.7.2,1.4.7,2.1.6,6.3-1.6,12.3,2.7,18.5,2.2s9.2,2.3,13.9,2.9c27.9,9.3,56,20.2,79.8,37.9a216.9,216.9,0,0,1,56,62q13.3,26.8,24.9,54.5c5.3,12.7,6.9,27,13.3,39.1,3.1,32,3.6,65.1-1.3,97.1-1.9,24.4-10.5,47.4-17.3,70.7-1.3,4-1.5,8-5.4,10.9s-3.7,5.6-5.4,8.6c-8.5,14.2-17.1,28.4-28.4,40.6a180.8,180.8,0,0,1-28.6,32.6c-7.3,3.8-14.4,8.8-22.4,10.9.9-1.6,1.8-3.3,2.8-4.9,3.3-1.2,6.3-2.7,8.1-6,7.8-2.2,13.9-8,19.3-13.8s12.2-12.3,15-20.4l-.8-.4c-11.5,11.1-20.3,25-33.5,34.6l-8.1,6C393.4,469.8,392.5,471.3,394.4,473.7ZM499.8,264.9c-1.2,4.9-3.4,9.7-.8,14.9,2.2-5.8.7-11.6,1.1-17.5h-.9ZM498,281.3c-3.6,6.9-.9,13.8-3.9,20.9-.5,1.2,0,2.8-.3,4.2-2.1,10.3-5.7,20.4-5.4,31C493.9,334.8,502.1,287.5,498,281.3ZM364.9,29c1.3,1.7,45.8,25,47.5,24.9C409.2,47.8,371.7,27.9,364.9,29Zm71,50.9-.8.9c1.7,2.4,6.7,9.9,9.9,8.6C444.7,85.8,438.7,82,435.9,79.9ZM500,209.8h-.9c0,.9.1,1.7.1,2.6h1C500.1,211.6,500.1,210.7,500,209.8ZM300.5,17.5l-.2,1,2.4.4.2-1.1ZM500,216.1h-.7l.2,1.6h.5Zm-11.2-42-.7.2.6,1.2.5-.2ZM336.3,497.8c1.3-1.3.7-2.4-.6-1.1S336,497.2,336.3,497.8Zm19-6.2c-.3-.7-.5-.4-.9-.2S354.9,491.8,355.3,491.6Zm-120.7,8.7v-.2h-.4C234.3,500.4,234.4,500.4,234.6,500.3Z"/></svg>