<svg xmlns="http://www.w3.org/2000/svg" viewBox="0 0 512 100"><path d="M117.9,49.4V23.1h12.9a17.5,17.5,0,0,1,7.8,1.6,12.7,12.7,0,0,1,5.2,4.5,12.5,12.5,0,0,1,1.9,7,12.6,12.6,0,0,1-1.9,7.1,11.4,11.4,0,0,1-5.2,4.5,17.5,17.5,0,0,1-7.8,1.6Zm8.8-6.9h3.8a6.6,6.6,0,0,0,3.2-.7,5,5,0,0,0,2.2-2.1,6.5,6.5,0,0,0,.8-3.5,5.8,5.8,0,0,0-.8-3.3,4.1,4.1,0,0,0-2.2-2.1,6.6,6.6,0,0,0-3.2-.8h-3.8Z"/><path d="M158,42.8h13.2v6.6H149.3V23.1h21.4v6.7H158Zm-.6-9.9h11.8v6.4H157.4Z"/><path d="M197.6,49.4V30h-7.7V23.1h24.3V30h-7.7V49.4Z"/><path d="M218.4,49.4V23.1h8.9V49.4Z"/><path d="M242.2,42.8h13.1v6.6H233.4V23.1h21.5v6.7H242.2Zm-.6-9.9h11.7v6.4H241.6Z"/><path d="M261.4,49.4V23.1h12.7a15.1,15.1,0,0,1,6.3,1.2,9.7,9.7,0,0,1,4.2,3.5,9.1,9.1,0,0,1,1.5,5.2,9.2,9.2,0,0,1-1.5,5.3,9.5,9.5,0,0,1-4.2,3.4,16.9,16.9,0,0,1-6.3,1.1h-7.8l4-3.6V49.4Zm8.9-9.2-4-4.1h7.2a3.6,3.6,0,0,0,2.7-.8,2.9,2.9,0,0,0,.9-2.3,2.8,2.8,0,0,0-.9-2.2,3.6,3.6,0,0,0-2.7-.8h-7.2l4-4.1Zm6.9,9.2-6.5-9.5h9.4l6.5,9.5Z"/><path d="M291.3,49.4V23.1H304a15.9,15.9,0,0,1,6.4,1.2,10,10,0,0,1,4.1,3.5A9.1,9.1,0,0,1,316,33a9.2,9.2,0,0,1-1.5,5.3,9.8,9.8,0,0,1-4.1,3.4,17.9,17.9,0,0,1-6.4,1.1h-7.8l4-3.6V49.4Zm8.9-9.2-4-4.1h7.2a3.5,3.5,0,0,0,2.7-.8A2.9,2.9,0,0,0,307,33a2.8,2.8,0,0,0-.9-2.2,3.5,3.5,0,0,0-2.7-.8h-7.2l4-4.1Zm6.9,9.2-6.5-9.5H310l6.5,9.5Z"/><path d="M317.6,49.4l11.5-26.3h8.7l11.5,26.3h-9.1l-8.5-22.1h3.4l-8.5,22.1Zm6.8-4.5,2.3-6.4h12.1l2.3,6.4Z"/><path d="M372.6,49.4V37.9l2,5.3L362.7,23.1H372l8.1,13.7h-5.4l8.1-13.7h8.6L379.5,43.2l2-5.3V49.4Z"/><path d="M407.6,49.4V23.1h12.7a15.4,15.4,0,0,1,6.3,1.2,9.7,9.7,0,0,1,4.2,3.5,9.1,9.1,0,0,1,1.5,5.2,9.2,9.2,0,0,1-1.5,5.3,10.4,10.4,0,0,1-4.2,3.5,15.4,15.4,0,0,1-6.3,1.2h-7.8l4-3.8V49.4Zm8.9-9.2-4-4.1h7.2a3.6,3.6,0,0,0,2.7-.8,2.9,2.9,0,0,0,.9-2.3,2.8,2.8,0,0,0-.9-2.2,3.6,3.6,0,0,0-2.7-.8h-7.2l4-4.1Z"/><path d="M429.1,49.4l11.5-26.3h8.7l11.5,26.3h-9.1l-8.5-22.1h3.4l-8.5,22.1Zm6.8-4.5,2.3-6.4h12.1l2.3,6.4Z"/><path d="M469.9,50a16.4,16.4,0,0,1-5.6-.9,10.4,10.4,0,0,1-4.1-3l4.7-5.6a9,9,0,0,0,2.1,1.9,3.5,3.5,0,0,0,2.1.7c1.9,0,2.9-1.1,2.9-3.3v-10h-9V23.1h17.7V39.3q0,5.4-2.7,8.1C476.1,49.2,473.4,50,469.9,50Z"/><path d="M480.3,49.4l11.5-26.3h8.7L512,49.4h-9.2l-8.5-22.1h3.5l-8.5,22.1Zm6.8-4.5,2.3-6.4h12.1l2.2,6.4Z"/><path d="M119.1,76.8h-1.2l5-12.6,5,12.6h-1.2l-1.1-2.6h-5.4Zm3.8-9.4-2.3,5.7h4.6Z"/><path d="M134.1,72.7v4.1H133V64.5h4.5a4,4,0,0,1,2.8,1,3.9,3.9,0,0,1,1.3,2.7,3.5,3.5,0,0,1-.7,2.8,3.8,3.8,0,0,1-2.5,1.6l3.2,4.2h-1.4L137,72.7Zm0-7v5.9h3.4a2.6,2.6,0,0,0,2.1-.9,2.9,2.9,0,0,0,0-4.2,2.5,2.5,0,0,0-2.1-.8Z"/><path d="M159,70.7a5.7,5.7,0,0,1-.4,2.2,5.2,5.2,0,0,1-1.1,1.9l1.5,2h-1.4l-1-1.2a5.8,5.8,0,0,1-3.8,1.2,6.1,6.1,0,0,1-6-4.9,6.2,6.2,0,0,1,.5-4,6.1,6.1,0,0,1,2.9-2.8,5.8,5.8,0,0,1,4.1-.5,6.5,6.5,0,0,1,3.4,2.2A5.9,5.9,0,0,1,159,70.7Zm-3.5,1.4,1.3,1.7a4.9,4.9,0,0,0,1.1-3.5,5.2,5.2,0,0,0-1.6-3.3,5.1,5.1,0,0,0-2.3-1.2,4.9,4.9,0,0,0-2.4,0,4.5,4.5,0,0,0-2.2,1.3,4.6,4.6,0,0,0-1.3,2.1,4.2,4.2,0,0,0-.1,2.5,5,5,0,0,0,3.1,3.6,5.4,5.4,0,0,0,2.5.3,4.8,4.8,0,0,0,2.3-1l-1.8-2.5Z"/><path d="M170.9,72.9V64.5H172v8.4a3.7,3.7,0,0,1-.5,2,3.2,3.2,0,0,1-1.4,1.4,3.9,3.9,0,0,1-2,.6,4.5,4.5,0,0,1-3.5-2,3.7,3.7,0,0,1-.5-2V64.5h1.1v8.4a3.7,3.7,0,0,0,.4,1.4,3.2,3.2,0,0,0,1,1,2.6,2.6,0,0,0,1.5.4,2.5,2.5,0,0,0,1.4-.4,3.2,3.2,0,0,0,1-1A3.7,3.7,0,0,0,170.9,72.9Z"/><path d="M178.2,76.8h-1.1V64.5h1.1Z"/><path d="M186.4,76.8V65.7h-3.1V64.5h7.5v1.2h-3.2V76.8Z"/><path d="M203.3,75.7v1.1h-7.5V64.5h7.5v1.2H197v5.9h5.5v1.1H197v3Z"/><path d="M214.5,75.7a4.5,4.5,0,0,0,3.1-1.2l.8.9a6.2,6.2,0,0,1-3.6,1.4,6.4,6.4,0,0,1-3.8-1,5.9,5.9,0,0,1-2.3-3.1,5.5,5.5,0,0,1-.1-3.8,6,6,0,0,1,2.2-3.2,6.1,6.1,0,0,1,3.7-1.2,6.9,6.9,0,0,1,2,.3,8.1,8.1,0,0,1,1.8,1l-.8.9a4.7,4.7,0,0,0-3-1,4.5,4.5,0,0,0-2,.4,4.2,4.2,0,0,0-2.6,2.6,4.5,4.5,0,0,0-.4,2,4.3,4.3,0,0,0,.4,1.9,5.4,5.4,0,0,0,1,1.6,9.1,9.1,0,0,0,1.6,1.1A6.5,6.5,0,0,0,214.5,75.7Z"/><path d="M226.6,76.8V65.7h-3.2V64.5H231v1.2h-3.2V76.8Z"/><path d="M242.7,72.9V64.5h1.2v8.4a3.7,3.7,0,0,1-.5,2,2.9,2.9,0,0,1-1.5,1.4,3.4,3.4,0,0,1-2,.6,3.3,3.3,0,0,1-1.9-.6,2.9,2.9,0,0,1-1.5-1.4,3.7,3.7,0,0,1-.5-2V64.5h1.1v8.4a3.7,3.7,0,0,0,.4,1.4,3.2,3.2,0,0,0,1,1,2.5,2.5,0,0,0,1.4.4,2.6,2.6,0,0,0,1.5-.4,3.2,3.2,0,0,0,1-1A2.4,2.4,0,0,0,242.7,72.9Z"/><path d="M250.1,72.7v4.1h-1.2V64.5h4.6a4,4,0,0,1,2.8,1,3.9,3.9,0,0,1,1.3,2.7,4,4,0,0,1-.7,2.8,3.8,3.8,0,0,1-2.5,1.6l3.2,4.2h-1.5L253,72.7Zm0-7v5.9h3.4a3,3,0,0,0,2.1-5.1,2.8,2.8,0,0,0-2.1-.8Z"/><path d="M263.9,76.8h-1.2l5.1-12.6,5,12.6h-1.3l-1-2.6H265Zm3.8-9.4-2.2,5.7H270Z"/><path d="M297.5,64.5h1.3l-4.2,7.7v4.6h-1.2V72.4l-4.3-7.9h1.4l3.4,6.4Z"/><path d="M323.9,72.7a4.1,4.1,0,0,1-.5,2.1,5.4,5.4,0,0,1-1.5,1.5,5,5,0,0,1-2.1.5h-4.6V64.5h4.6a2.3,2.3,0,0,1,1.4.4,2.3,2.3,0,0,1,1,1.2,2.6,2.6,0,0,1,.1,1.5,2.7,2.7,0,0,1-.7,1.4,3.5,3.5,0,0,1,1.7,1.5A4.3,4.3,0,0,1,323.9,72.7Zm-7.5-7v2.8h3.4a1.4,1.4,0,1,0,0-2.8Zm0,4v6h3.4a3,3,0,0,0,0-6Z"/><path d="M330.1,76.8H329V64.5h1.1Z"/><path d="M343.7,76.3a4.7,4.7,0,0,1-2.4.5,4.6,4.6,0,0,1-2.3-.5,4.6,4.6,0,0,1-2-1.3,5,5,0,0,1-1.3-1.9,5.2,5.2,0,0,1-.5-2.4,4.7,4.7,0,0,1,.5-2.4A5.7,5.7,0,0,1,339,65a5.9,5.9,0,0,1,2.3-.5,6,6,0,0,1,2.4.5,5.7,5.7,0,0,1,3.3,3.3,4.7,4.7,0,0,1,.5,2.4,5.2,5.2,0,0,1-.5,2.4,5,5,0,0,1-1.3,1.9A4.6,4.6,0,0,1,343.7,76.3Zm-2.4-10.6a5.4,5.4,0,0,0-2.5.6,6.6,6.6,0,0,0-1.8,1.9,5.2,5.2,0,0,0-.7,2.5,6.5,6.5,0,0,0,.4,1.9,9.1,9.1,0,0,0,1.1,1.6,9.1,9.1,0,0,0,1.6,1.1,6.5,6.5,0,0,0,1.9.4,5.6,5.6,0,0,0,2.6-.7,7.7,7.7,0,0,0,1.8-1.8,5.4,5.4,0,0,0,.6-2.5,4.5,4.5,0,0,0-.4-2,4.2,4.2,0,0,0-2.6-2.6A4.5,4.5,0,0,0,341.3,65.7Z"/><path d="M358.7,75.7a4.7,4.7,0,0,0,3.2-1.2l.7.9a5.7,5.7,0,0,1-3.6,1.4,6.1,6.1,0,0,1-3.7-1,6.7,6.7,0,0,1-2.4-3.1,6.2,6.2,0,0,1-.1-3.8,6,6,0,0,1,2.2-3.2,6.3,6.3,0,0,1,3.7-1.2,6.4,6.4,0,0,1,2,.3,5.2,5.2,0,0,1,1.8,1l-.7.9a4.8,4.8,0,0,0-3.1-1,4.1,4.1,0,0,0-1.9.4,4.4,4.4,0,0,0-1.6,1,5.7,5.7,0,0,0-1.1,1.6,4.5,4.5,0,0,0-.4,2,4.3,4.3,0,0,0,.4,1.9,5.7,5.7,0,0,0,1.1,1.6,6.4,6.4,0,0,0,1.6,1.1A5.8,5.8,0,0,0,358.7,75.7Z"/><path d="M375.4,76.3a5.2,5.2,0,0,1-2.4.5,4.7,4.7,0,0,1-2.4-.5,4.6,4.6,0,0,1-2-1.3,5,5,0,0,1-1.3-1.9,6.9,6.9,0,0,1-.5-2.4,6,6,0,0,1,.5-2.4,5.7,5.7,0,0,1,3.3-3.3,6,6,0,0,1,2.4-.5,6.9,6.9,0,0,1,2.4.5,5,5,0,0,1,1.9,1.3,4.6,4.6,0,0,1,1.3,2,4.7,4.7,0,0,1,.5,2.4,5.2,5.2,0,0,1-.5,2.4,6.2,6.2,0,0,1-3.2,3.2ZM373,65.7a5.1,5.1,0,0,0-2.5.6,5.8,5.8,0,0,0-1.9,1.9,5.1,5.1,0,0,0-.6,2.5,4.3,4.3,0,0,0,.4,1.9,5.4,5.4,0,0,0,1,1.6,9.1,9.1,0,0,0,1.6,1.1,6.5,6.5,0,0,0,2,.4,5.5,5.5,0,0,0,2.5-.7,7.7,7.7,0,0,0,1.8-1.8,5.5,5.5,0,0,0,.7-2.5,6.5,6.5,0,0,0-.4-2,9.1,9.1,0,0,0-1.1-1.6,5.5,5.5,0,0,0-3.5-1.4Z"/><path d="M385.3,67.6v9.2h-1.1V64.3l7.4,9.3V64.5h1.2V76.9Z"/><path d="M400.7,75.7h0a2,2,0,0,0,1.5-.6,2.2,2.2,0,0,0,.9-1.2,2.9,2.9,0,0,0-.1-1.6,2.9,2.9,0,0,0-1-1.2l-2.8-1.6a2.4,2.4,0,0,1-1.1-1.3,2,2,0,0,1-.1-1.7,2.4,2.4,0,0,1,.9-1.5,3.4,3.4,0,0,1,1.7-.5h.2a3.2,3.2,0,0,1,1.4.3,4.7,4.7,0,0,1,1,1l-1,.6-.6-.5a1.1,1.1,0,0,0-.8-.2h-.2a1.7,1.7,0,0,0-1,.3,2.2,2.2,0,0,0-.5.8,1.7,1.7,0,0,0,0,1,1.6,1.6,0,0,0,.7.7l2.7,1.6a3.5,3.5,0,0,1,1.6,1.8,3.6,3.6,0,0,1,.1,2.3,3.5,3.5,0,0,1-1.3,1.9,3.2,3.2,0,0,1-2.2.7h0a2.9,2.9,0,0,1-1.6-.4,3.1,3.1,0,0,1-1.3-1l1-.7a2.7,2.7,0,0,0,.8.7A2.3,2.3,0,0,0,400.7,75.7Z"/><path d="M412.5,76.8V65.7h-3.1V64.5h7.5v1.2h-3.2V76.8Z"/><path d="M423.1,72.7v4.1h-1.2V64.5h4.6a3.8,3.8,0,0,1,2.7,1,4,4,0,0,1,1.4,2.7,4.2,4.2,0,0,1-3.2,4.4l3.2,4.2h-1.5L426,72.7Zm0-7v5.9h3.4a2.9,2.9,0,0,0,2.1-.9,2.9,2.9,0,0,0-2.1-5Z"/><path d="M442.4,72.9V64.5h1.2v8.4a4.9,4.9,0,0,1-.5,2,4,4,0,0,1-1.5,1.4,3.6,3.6,0,0,1-4,0,3.2,3.2,0,0,1-1.4-1.4,3.9,3.9,0,0,1-.6-2V64.5h1.2v8.4a2.5,2.5,0,0,0,.4,1.4,2.4,2.4,0,0,0,1,1,2.6,2.6,0,0,0,2.8,0,2.7,2.7,0,0,0,1.1-1A3.5,3.5,0,0,0,442.4,72.9Z"/><path d="M454.8,75.7a4.9,4.9,0,0,0,3.2-1.2l.7.9a5.7,5.7,0,0,1-3.6,1.4,5.9,5.9,0,0,1-3.7-1,5.6,5.6,0,0,1-2.4-3.1,5.5,5.5,0,0,1-.1-3.8,6,6,0,0,1,2.2-3.2,6.1,6.1,0,0,1,3.7-1.2,6.4,6.4,0,0,1,2,.3,8.1,8.1,0,0,1,1.8,1l-.7.9a5,5,0,0,0-3.1-1,4.1,4.1,0,0,0-1.9.4,3.7,3.7,0,0,0-1.6,1,4.2,4.2,0,0,0-1.1,1.6,4.5,4.5,0,0,0-.4,2,4.3,4.3,0,0,0,.4,1.9,4.2,4.2,0,0,0,1.1,1.6,5,5,0,0,0,1.6,1.1A5.8,5.8,0,0,0,454.8,75.7Z"/><path d="M469,75.7a4.7,4.7,0,0,0,3.2-1.2l.8.9a6.2,6.2,0,0,1-3.6,1.4,6.4,6.4,0,0,1-3.8-1,6.7,6.7,0,0,1-2.4-3.1,6.1,6.1,0,0,1,2.2-7,6,6,0,0,1,3.6-1.2,6.4,6.4,0,0,1,2,.3,5.2,5.2,0,0,1,1.8,1l-.7.9a4.8,4.8,0,0,0-3.1-1,5.5,5.5,0,0,0-3.5,1.4,9.1,9.1,0,0,0-1.1,1.6,5,5,0,0,0,0,3.9,9.1,9.1,0,0,0,1.1,1.6,5,5,0,0,0,3.5,1.5Z"/><path d="M479.2,76.8H478V64.5h1.2Z"/><path d="M490.4,64.5a5.1,5.1,0,0,1,4.3,1.8,5,5,0,0,1,1.3,1.9,5.2,5.2,0,0,1,.5,2.4,6.1,6.1,0,0,1-.4,2.4,7.2,7.2,0,0,1-1.4,2,6.4,6.4,0,0,1-1.9,1.3,6.9,6.9,0,0,1-2.4.5,6,6,0,0,1-2.4-.5,5.7,5.7,0,0,1-3.3-3.3,6,6,0,0,1-.5-2.4,6.9,6.9,0,0,1,.5-2.4,6.4,6.4,0,0,1,1.3-1.9,7.2,7.2,0,0,1,2-1.4A6.1,6.1,0,0,1,490.4,64.5Zm-2,10.7a4.5,4.5,0,0,0,2,.4,4.1,4.1,0,0,0,1.9-.4,4.4,4.4,0,0,0,1.6-1,5.7,5.7,0,0,0,1.1-1.6,7.1,7.1,0,0,0,.4-2,5.8,5.8,0,0,0-.4-1.9,5.3,5.3,0,0,0-2.7-2.7,5.8,5.8,0,0,0-1.9-.4,6.5,6.5,0,0,0-2,.4,5.7,5.7,0,0,0-1.6,1.1,4.4,4.4,0,0,0-1,1.6,4.1,4.1,0,0,0-.4,1.9,4.8,4.8,0,0,0,.4,2,4.2,4.2,0,0,0,2.6,2.6Zm3.3-13.6-2.1,1.9-.6-.7,2.2-1.8Z"/><path d="M502.7,67.6v9.2h-1.1V64.3l7.5,9.3V64.5h1.1V76.9Z"/><path d="M43.3,79.1c.6-6.1.8-12.2,1.2-18.3s.1-11.2,2.6-16.3A14.1,14.1,0,0,0,48.2,40a2.3,2.3,0,0,1,.1-.4c.9-.4,2.4,2.9,2.8,3.6a13.1,13.1,0,0,1,.9,3.4c.7,3.9.1,7.8.2,11.6s-.1,9.1-.1,13.7.1,7.4-.7,11a.9.9,0,0,1-1.1.7c-1,0-2,1-3,.3C44.4,82.5,43.4,82.7,43.3,79.1Z"/><path d="M72.4,79.2,70.3,79c-1.8-.3-2.5-2.8-2.8-4.4-.8-4.9-2.9-9.4-3.5-14.2s-2.4-11-3.7-16.4c-.2-1.3,0-2.6-.2-3.9a4.3,4.3,0,0,1,0-1.6,9.7,9.7,0,0,1,.1-2.4c3.9,1.1,5.4,5.6,6.7,9.1,2.5,5.4,3.5,11.3,5.7,16.8s4.3,9.7,4.2,14.9c-.1.3-.2.5-.5.6A8.5,8.5,0,0,1,72.4,79.2Z"/><path d="M37.3,32.8c.9,1.5.9,3.2,1.2,4.9a4.9,4.9,0,0,1-.6,2.9A34,34,0,0,0,36.7,44a21.9,21.9,0,0,0-1.6,4.1c-2.2,7.1-4.4,14.2-7,21.3-.4.9-.6,2.1-1.8,2.5s-1.6,1.8-2.6.8c-2.9-2.1-5.2-5.3-3.6-9s3.2-6.6,5-9.9A148.5,148.5,0,0,1,35,36.5C35.9,35.3,36.3,34,37.3,32.8Z"/><path d="M2,46.6a22,22,0,0,1-.4,3.6c-.1.6.3,1.3.2,1.9-.7,2.6.3,2.1.4,4.1s.2,1.4-.3,2,.2,1.1.2,1.7a2.7,2.7,0,0,1,.3,2c.3.8,0,2,1.1,2.4a5.7,5.7,0,0,1,1.3,2.1c.6,1.4.5,3,1.3,4.2a89.3,89.3,0,0,0,6.1,9.8c-1.8-1.1-1.7-2-3-3.3l-.2.7a30.8,30.8,0,0,1-3.7-4.4,11,11,0,0,0-2-3.1c-1.2-1.5-1.4-3.2-1.8-5S.7,62.4.7,60.8s-.9-3.4-.6-5.1S-.2,51.9.1,50s.5-2.8.7-4.3a1.2,1.2,0,0,1,.4-.9C1.9,45.2,1.5,46,2,46.6Z"/><path d="M47.7,17.9c.1-1,1.2-1.3,1.9-1.9,2.3-1.2,4.4,1.9,3.8,4.2a2.2,2.2,0,0,1-4.2.5A19.1,19.1,0,0,1,47.7,17.9Z"/><path d="M43,24.4c-.3,4.7-5.8,5-5.1-.3.2-1.6,2.1-1.5,3.3-1.8S43.1,23.3,43,24.4Z"/><path d="M59.8,29.3a3.8,3.8,0,0,1-2.7-2c.1-2,2.5-3,4.4-2.3s1.5.5,1,2.2A2.8,2.8,0,0,1,59.8,29.3Z"/><path d="M5.5,30.7c-.2.4-.8.8-.9,1.3s0,1.4-.4,1.9a5.4,5.4,0,0,0-.7,1.9c-.9,1-.7,2.3-.8,3.5a43.6,43.6,0,0,1-1.1,5.2H1.4c-.4-.7,0-1.5,0-2.2a13.9,13.9,0,0,1,.9-3.5A13.7,13.7,0,0,1,2.8,36c-.2-.8.2-1.5-.1-2.2a13.5,13.5,0,0,1,1.5-2.6c.4-.5.4.4,1.2-.6Z"/><path d="M13.3,18.6a9.2,9.2,0,0,0-1.7,2.2c-.3.5-.9.9-1.2,1.4a11.2,11.2,0,0,1-1.9,2.4c-.9,1.2-1.3,2.8-2.1,4.1s-1-.1-.7-.6a5.1,5.1,0,0,0,1-2.1,7.7,7.7,0,0,1,2.8-3.4c.6-.5-.9-.7-.1-1.1s1.1-1.3,2-1.7,1.2-.9,1.9-1.3Z"/><path d="M16.6,86.4c.3.2,1.7,1.5,1.8.9s-.2-.4-.4-.4-1-.8-1.5-1.4c1.5.8,2.8,2,4.3,2.9a23.2,23.2,0,0,0,4.6,2.7v.2c-.8.1-1.5-.9-2.2-1.1s-1.6-1.1-2.6-1.6-.8.7-1.7.2-1.4-1.4-2.3-1.9-.1-.2-.2-.3Zm2.5,2H19c.1.1.2.2.2,0S19.1,88.4,19.1,88.4Z"/><path d="M21.6,11.1a8.8,8.8,0,0,1-2.4,2.3H19c.1-.3.1-.7.3-.9S20.6,11.1,21.6,11.1Z"/><path d="M17.5,14.6A10,10,0,0,1,15,16.7a.5.5,0,0,1,0-.8c.4-.3.7-1,1.2-1.1s.8-.2,1.3-.2Zm-1.7,1.3Z"/><path d="M15.6,85.5a2.5,2.5,0,0,1-1.3-1.4C15.2,84.4,16.7,84.5,15.6,85.5Z"/><path d="M32,96l1.9,1.1h0C33.4,97.1,31.1,96.8,32,96Z"/><path d="M15.7,83.8c-.8.3-2.1-.8-1.2-1.1Z"/><path d="M28.6,93.2c-1.1.5-1.8-1.1-.8-.8Z"/><path d="M35.7,6l1.1-.4c-.2.5-.5.6-1.1.6Z"/><path d="M21.1,90.3l.8.5V91l-.8-.5Z"/><path d="M13.7,82.2l-.5-.3v-.2l.6.3Z"/><path d="M14.4,17.5l-.6.6h-.1l.6-.6Z"/><path d="M41.8,1.5h0Z"/><path d="M24.2,92.5l.5.2v.2l-.4-.4Z"/><path d="M52.4,3.9h0Z"/><path d="M22.1,91.2h.3l-.2-.3Z"/><polygon points="30.8 95.9 30.8 96 30.8 95.9 30.8 95.9"/><path d="M18,14.2h0Z"/><path d="M18.1,14.1h0Z"/><path d="M44.6,97.7h0Z"/><path d="M19.1,88.4h0Z"/><path d="M15.8,15.9h0Z"/><path d="M75.8,92.5l-1.4.7c-1,.4.4,1.2-.6,1.6l-5.6,2.5a49.8,49.8,0,0,1-11.5,2.2c-2.5,0-4.9.6-7.4.5a12.4,12.4,0,0,1-1.6-.4H45.2a2.9,2.9,0,0,1-1.6,0c-.6-.1-.9.1-1.3-.1a3.1,3.1,0,0,0-1.9-.2,15.5,15.5,0,0,1-2.1-.4,34.2,34.2,0,0,1-3.4-1.3v-.2c1.1.2,2.3.6,3.4.7a25,25,0,0,1,2.9.5c2,0,4.1.4,6.1.5s.9.4,1.5.2,2.1.2,3.2-.1,2.7.3,3.6-.7l.8-.5c-1.5-.2-3,.3-4.5.2s-3.4-.7-4.2.1-2.1-.2-3.1-.2-3.6.5-2.9-1,1.9.3,2.8.4.4-.2.6-.3-.3-.5-.4-.6.7-.4,1.3.3l-.5.3c1.5.7,3.7.2,5.4.1a3.2,3.2,0,0,0,1.8-.6h.4a33.8,33.8,0,0,0,5.5-.3,21.8,21.8,0,0,1,2.3-.9A44.3,44.3,0,0,0,65.8,94c.5-.2,1-.6,1.6-.3h.3c5.2-2.4,10.5-5.2,14.2-9.7a56,56,0,0,0,9.4-17.1,52.6,52.6,0,0,0,2.1-15.7A51.5,51.5,0,0,0,93,40.7a23.8,23.8,0,0,0-1.6-6.5c-.5-1.6-1.2-3.2-1.7-4.8s-2.9-5.3-4.4-8a3.3,3.3,0,0,1-.7-1.7c0-.3-.3-.6-.5-.8a22.1,22.1,0,0,0-4.6-4c-3.7-4.6-9.8-6.6-15-9.1.4-.5.4-.5-.2-.7s-.8-.4-1.4-.3l.2.7-1.2-.4.3-.5a3.2,3.2,0,0,0-2.3-.4,1.9,1.9,0,0,0,.9.4v.2a.3.3,0,0,1-.4,0c-1.1-.5-2.4-.3-3.5-.6A21.7,21.7,0,0,0,53.1,4V3.7c.6-.1,3.7,0,3.8-.6s1.3-.3,1.8-.5c-1.9-1.5-4,0-6.2-.4-.1.1-.3,0-.4-.1s-2.8-.1-3.2-1A.7.7,0,0,1,49.6,0c2.2.1,4.5-.2,6.7.6h.4c1.2-.3,2.4.6,3.6.5s1.8.4,2.7.5c5.5,1.8,11,4,15.6,7.4a43.8,43.8,0,0,1,11,12.1c1.7,3.5,3.3,7.1,4.8,10.7s1.4,5.2,2.6,7.6a80.5,80.5,0,0,1-.2,19c-.4,4.7-2.1,9.2-3.4,13.8-.3.8-.3,1.5-1.1,2.1s-.7,1.1-1,1.7A49,49,0,0,1,85.7,84a33.8,33.8,0,0,1-5.5,6.4,29.3,29.3,0,0,1-4.4,2.1l.5-.9a2.9,2.9,0,0,0,1.6-1.2,9.2,9.2,0,0,0,3.8-2.7c1-1.1,2.4-2.4,2.9-4h-.1c-2.3,2.2-4,4.9-6.6,6.8l-1.6,1.2C75.6,91.8,75.4,92.1,75.8,92.5ZM96.4,51.7c-.3,1-.7,1.9-.2,2.9.4-1.1.1-2.2.2-3.4h-.2ZM96,54.9c-.7,1.4-.2,2.7-.7,4.1s0,.6-.1.8c-.4,2.1-1.1,4-1.1,6.1C95.2,65.4,96.8,56.2,96,54.9ZM70,5.7c.3.3,9,4.8,9.3,4.8S71.3,5.4,70,5.7Zm13.9,9.9-.2.2c.4.5,1.3,1.9,2,1.7S84.4,16,83.9,15.6ZM96.4,41h-.2v.5h.2ZM57.4,3.4v.2h.5V3.5Zm39,38.8h-.1v.3h.1ZM94.2,34h-.1v.3h.1ZM64.4,97.2c.3-.2.2-.4-.1-.2S64.4,97.1,64.4,97.2ZM68.1,96h0ZM44.6,97.7Z"/></svg>