<svg xmlns="http://www.w3.org/2000/svg" viewBox="0 0 500 480" fill="var(--title)"><path d="M10.212 11.582l-.315 173.493a1.165 1.165 0 0 1-1.165 1.165H1.165A1.165 1.165 0 0 1 0 185.075L.041 1.343A1.165 1.165 0 0 1 1.206.178L184.938.123a1.165 1.165 0 0 1 1.165 1.165v7.525a1.165 1.165 0 0 1-1.165 1.165l-173.561.439a1.165 1.165 0 0 0-1.165 1.165zm376.497 158.84c16.709-.384 31.623 7.635 33.185 25.797q1.042 11.953.302 23.96-.014.219.178.685.151.37.151.699-.055 21.438-.11 42.876c-.027 8.471.699 17.998-.329 24.276-1.316 8.115-7.539 16.202-15.407 19.889-2.07.973-4.332 2.248-6.484 2.728-19.766 4.427-41.835-5.209-42.068-28.155l.041-41.958q-.096-12.391.027-24.783.219-21.287.452-22.631c2.577-14.831 15.64-23.042 30.06-23.385zm-3.756 6.908q-.014.302-.014.603.014.535.535.425l1.755-.315q.781-.151.48-.877-.411-.987-1.535-1.165-.822-.123-1.097.658-.096.26-.123.672zm-11.679 6.47q-.466.137-.932-.178a.631.398 67.3 0 0-.164 1.042q.795.603 1.837.781.918.151.617-.726-.507-1.467.219-2.892a.535.535 0 0 0-.891-.589q-.74.877-.398 2.042.11.398-.288.521zm14.023.164q-.096.178-.219.315-.343.384.137.548.192.069.384.137.452.178.439-.315-.082-2.618-2.262-3.427-1.371-.521-.343.521l1.796 1.796q.178.192.068.425zm-3.811.548q.247-.26.37-.562.233-.562-.219-.96-1.988-1.837-4.565-1.261-.603.137-.726.726-.11.48.233.781.247.219.576.164l.713-.11q.466-.069.329.384-.535 1.645-2.289 2.056a1.055 1.11 10.5 0 0-.699.507q-.411.644-.48 1.398-.096 1.097.836.493c1.275-.809 1.672-2.33 2.824-2.796q1.48-.576 2.317 1.083a.37.37 0 0 0 .699-.069q.137-.493-.068-.946-.233-.493.151-.891zm11.103 2.81q.068-.562-.274-1.001a.576.562 29 0 0-1.014.288q-.082.85.672 1.11.548.192.617-.398zm-22.192 2.824l-3.317-1.563a.48.48 0 0 0-.617.685q1.097 1.823 2.961 2.81a.85.836 21.3 0 0 1.206-.521q.219-.768-.233-1.412l2.084-.37q.315-.055.466.219.178.343.562.48.617.206.343-.384l-.795-1.755q-.288-.631-.836-.233-1.097.74-1.823 2.042zm7.827 2.673q.329.658-.014 1.316-.795 1.59.631.535 1.124-.836 1.014-2.33a.726.713 82.2 0 0-.85-.658l-2.728.521q-.918.178-.26.836.123.137.288.219.356.206.713 0 .37-.206.493-.452.384-.685.713.014zm-14.639 1.371q.041.521.425.864a.356.356 0 0 0 .603-.206q.178-1.069-.192-2.138a.576.576 0 0 0-1.069-.014q-.274.672.055 1.069.151.178.178.425zm32.294 5.784a6.84 6.84 0 0 0-6.84-6.84h-1.398a6.84 6.84 0 0 0-6.84 6.84v82.847a6.84 6.84 0 0 0 6.84 6.84h1.398a6.84 6.84 0 0 0 6.84-6.84zm-23.494-5.593c-1.357.315-2.33-.027-3.632.123q-.425.055-.631.274-.233.26-.219.603.027.74.768.822 2.166.219 3.961-1.11.123-.096.164-.206.082-.219-.027-.37-.151-.206-.384-.137zm-6.511 2.7l.48.48q1.179 1.206.439-.329-.151-.302-.452-.521-.617-.439-1.357-.274-.905.206-1.426-.658a.685.685 0 0 0-.809-.288l-.548.178q-.603.206-.178.685 1.522 1.686 3.468.658.219-.11.384.069zm4.976 1.659q-.315-.836-1.083-.864-.685-.041-1.042.562-.398.685.164 1.357.302.356.864.507.932.274 1.055.014a2.001 2.015 46.3 0 0 .041-1.576zm.809.178q-.493.398-.014.795 1.302 1.069 2.303-.603a.48.48 0 0 0-.329-.726q-1.069-.164-1.96.535zm-5.51 2.536q-.233 1.549.288 3.016.425 1.206 1.357.329l.836-.781a1.494 1.494 0 0 0 .178-1.974q-1.042-1.398-1.439-3.084-.164-.685-.74-.288-1.494 1.028-3.125.658-2.084-.48-.589 1.055 1.193 1.22 2.289.466a.617.617 0 0 1 .946.603zm-6.278 2.166l.548-2.029q.151-.562-.398-.726-.987-.288-1.384.644-.685 1.617.918 2.262a.233.233 0 0 0 .315-.151zm4.345 7.484q.356-.535.905-.343a.672.672 0 0 0 .877-.617q.027-.822-.439-1.508a1.288 1.302 36.2 0 1-.164-1.097q.795-2.796-1.165-4.455c-1.22-1.055-2.632-.466-3.454.658q-.754 1.028.466.672l1.124-.329a.946.973 71.3 0 1 1.165.562l.672 1.686q.439 1.124-.713.781l-1.275-.37a.315.329 77.8 0 0-.343.521q.343.411.192 1.055a.987 1.014 74.5 0 1-.26.452q-1.138 1.069-1.426 2.604-.192.973.699.535.384-.192.781-.11.822.178.672 1.001-.068.398 0 .795a.891.891 0 0 0 1.042.726q2.001-.384 2.399-2.399.192-.959-.74-.644l-.699.247q-.795.274-.315-.425zm2.892.082q1.275-.918 1.823-1.782.452-.713-.26-.26-1.302.822-1.85 1.782-.452.795.288.26zm2.988 6.168l-1.234-2.988q-.466-1.138-1.042-.041c-.685 1.316.302 3.208 1.645 3.687q1.055.384.631-.658zm-4.003.069q.274.356.658.535.644.315.452-.37-.219-.85-1.028-1.412-.576-.398-.918.206-.192.329-.096.726.027.164.192.164.206 0 .425 0 .192 0 .315.151zm6.813 1.426q.562-.932.535-2.029a.439.439 0 0 0-.822-.219q-.603.946-.398 2.125a.37.37 0 0 0 .685.123zm-7.841 4.976q-.288.288-.521.617-.781 1.097.466.576l2.179-.918a.603.603 0 0 0 .041-1.097q-1.48-.74-.288-2.084 1.042-1.165-.452-.726-1.371.411-2.152 1.617-.384.603.233.946l.384.206q.617.356.11.864zm40.368.452l1.234-2.426q.754-1.453-.411-.302-1.563 1.535-1.672 3.769-.041.987.535.343.192-.233.164-.576-.041-.425.151-.809zm-.315 5.099q.726-.398.384-1.124-.274-.589-.589-.014-1.371 2.467.562 4.332a.466.452 49.8 0 0 .548.055l.329-.219q.096-.055-.027-.507-.26-.932-1.124-1.302a.685.685 0 0 1-.082-1.22zm3.194 10.733l.206-.288q.096-.123-.014-.233-1.878-1.796-4.455-1.988-.11 0-.137.137h0q-.027.219.11.247 2.44.507 4.263 2.138.014.014.027-.014zm4.77 5.538q1.179-.864.48-1.988-.576-.96-.768.151l-.439 2.508q-.11.617.343.192.329-.329.384-.864zm-6.675 5.195q.315.082.425-.219.713-1.974.274-3.975a.425.425 0 0 0-.302-.315q-.192-.055-.37-.11a.247.247 0 0 0-.302.219l-.343 3.92q-.027.288.247.356zm6.538-1.179q.055.726.466 1.384.288.466.781.219.192-.096.315-.315.123-.233.027-.535-.343-1.069-1.261-1.097-.37-.014-.329.343zm1.193 5.661q.096.288-.014.562-.206.507-.74.384-.644-.151-1.124.192-.411.302-.384.809a.562.562 0 0 0 1.055.247q.589-1.069 1.453-.466.932.644 1.247-.452.11-.425-.027-.877c-.329-1.028-2.207-1.809-2.837-3.427a.795.809 82.1 0 0-.685-.507l-1.11-.069q-.877-.069-.425.685 1.014 1.7 2.879 2.234.535.164.713.685zm-.356 8.348q.11-.233.164-.493.137-.836-.631-.48-1.055.493-1.426 1.549a.521.521 0 0 0 .548.685q.617-.055.918-.493.164-.247.425-.768zm-4.194 7.827l2.289 3.112q.178.247.398.027l.343-.329q.247-.233.014-.493-2.056-2.303-2.646-5.305-.452-2.371-1.288-.11l-1.014 2.741q-.288.795-1.138.795-.288 0-.617-.014-1.467-.082-.384.918l2.33 2.152q.576.521.274-.192c-.521-1.288-.11-2.138.521-3.249q.411-.74.918-.055zm4.331-2.632q.206-.027.411-.041.658-.027.315-.589-.178-.302-.48-.398-.699-.233-1.069.398l-.507.891q-.507.905.384.398.384-.206.685-.535.11-.11.26-.123zm-309.36-72.854v32.637a.685.685 0 0 0 .685.685l18.313-.069a.685.685 0 0 1 .685.685l.178 20.753a.685.685 0 0 1-.699.699l-18.464-.055a.685.685 0 0 0-.685.685l.055 57.666a.685.685 0 0 1-.685.685l-23.522-.151a.685.685 0 0 1-.685-.685l-.096-136.004a.685.685 0 0 1 .685-.685l45.536-.233a.685.685 0 0 1 .685.685v21.329a.685.685 0 0 1-.685.685h-20.616a.685.685 0 0 0-.685.685zm5.387 41.656l1.069-2.083a.425.411 15.7 0 0-.343-.603l-1.014-.069a.535.535 0 0 0-.576.439q-.233 1.165.151 2.262.302.891.713.055zm-3.509.631q-.398.617-.164 1.357a.603.603 0 0 0 .905.329q.754-.48.603-1.398a.74.74 0 0 0-1.343-.288zm8.498 3.728q.343-.507.151-.932-.329-.74-.781-.178-.082.11-.123.384-.069.425-.439.192-.439-.288-.603-.836-.178-.603-.631-1.028-.617-.576-1.412-.768a.644.658 14.3 0 0-.781.466q-.452 1.727-2.042 2.371-.507.219-.288.726.151.384.685.315 2.865-.356 4.373 1.522a1.193 1.206 77.6 0 0 .672.425q1.33.302 2.591.11 1.193-.192.11-.74-.946-.48-1.508-1.412-.192-.315.027-.617z"/><path d="M157.825 277.791l-2.385 31.828a.74.74 0 0 1-.74.685h-23.768a.74.74 0 0 1-.74-.836l16.627-136.086a.74.74 0 0 1 .726-.644l36.831-.302a.74.74 0 0 1 .74.658l16.38 136.237a.74.74 0 0 1-.726.836l-24.714.233a.74.74 0 0 1-.74-.685l-2.659-32.157a.74.74 0 0 0-.754-.672l-13.351.219a.74.74 0 0 0-.726.685zm-1.686-98.075a.343.343 0 0 0 .027.644q.85.219 1.659-.11.905-.37-.096-.836-.315-.151-1.59.302zm2.07 4.455a.644.658 50 0 1 .096-1.001q1.508-1.042 2.7-2.412.85-.96-.274-.329l-4.277 2.399q-.918.507-.082 1.124l1.59 1.179a.315.315 0 0 0 .493-.192q.096-.425-.247-.768zm5.551 14.228c-.37 19.3-2.55 38.435-3.756 57.379q-.041.768.726.754l9.294-.082q.768 0 .699-.768l-3.358-40.628q-.822-8.375-.343-16.476.069-1.247-1.179-1.343l-.726-.069q-1.33-.096-1.357 1.234zm-14.557 25.153q.356.027.603-.041 1.617-.452-.206-.425-1.357.027-2.755.219-.726.096-.452.781.137.329.521.535a.685.672 26.6 0 0 .918-.302q.123-.247.329-.425.452-.398 1.042-.343zm3.235 9.513q.123.466.425.836.822 1.001.507-.439-.082-.398-.315-.74-.329-.493-.918-.631-1.412-.329-1.96-1.535a.384.384 0 0 1 .644-.411q1.59 1.809 3.66.356.672-.493.713-1.33.027-.781.37-1.604a.086.086 0 0 0-.151-.082l-.247.315a.658.658 0 0 1-1.138-.617l1.014-2.933q.096-.274-.192-.26l-.973.027a.398.398 0 0 0-.384.384q-.137 3.578-3.578 3.756a1.275 1.275 0 0 1-1.234-.781l-.74-1.727q-.302-.713-.699-.041c-1.028 1.823.795 3.139-.096 5.099a.535.548 52.1 0 1-1.028-.123l-.329-1.892a.685.672 50.2 0 0-1.302-.123q-1.11 3.084-.589 6.292.123.809.672.206 1.604-1.782 3.769-2.728.192-.096.288.096l.192.411q.151.302-.164.411-1.302.425-1.823 1.7-.206.535.302.781 1.097.521 1.151 1.878a.398.398 0 0 0 .795.041l.411-3.454a.74.754 2 0 1 .685-.644q.932-.069 1.631-.685.466-.411.631.192zm-2.81-7.032a.658.644 6.1 0 0 .521.631q1.302.274.864-1.124a.631.631 0 0 0-.74-.439q-.631.137-.644.932zm5.93 17.388a1.11.658 54 0 0-.12-1.285 1.11.658 54 0 0-1.185-.512 1.11.658 54 0 0 .12 1.285 1.11.658 54 0 0 1.185.512zm-6.821 1.213q-.055-.535-.343-.973-.096-.137-.26-.151-.398-.041-.631.288a.26.247 36.9 0 0 .055.343q1.33 1.069.822 2.755-.192.644-.041 1.288l.576 2.508q.206.891.644.096 1.768-3.235 5.044-4.852.233-.11.343-.302.11-.206.151-.384.123-.562-.452-.507l-5.154.507q-.672.069-.754-.617zm2.824 5.222q1.796 1.302 2.974 3.194a.164.164 0 0 0 .26.027q.164-.192.356-.384.356-.356.055-.781l-2.152-2.988a.768.768 0 0 0-1.179-.069l-.37.398a.411.398 40.1 0 0 .055.603zm-1.823 3.811q-.905 1.234-1.11 2.714a.493.48 57.8 0 0 .946.219q.384-1.234 1.631-1.659.74-.26.658-1.042-.123-1.001.164-1.892.302-.946-.685-.946-.384.014-.699.493-.343.521-.48 1.165-.11.521-.425.946zm-2.563.274l1.453-.247a.37.37 0 0 0 .274-.507q-.151-.329-.288-.631a.644.644 0 0 0-1.001-.192l-.836.726q-1.33 1.151.398.85zm6.662 2.865q-1.727.946-3.495.164a.589.589 0 0 0-.535.027q-.164.11-.315.233-1.042.864.315.822l5.456-.192q.946-.041.288-.726-.891-.932.096-2.015a.754.754 0 0 0-.576-1.261q-.918.014-1.741.466-.658.356-.096.836l.713.631a.617.617 0 0 1-.11 1.014zm9.28 4.181l-1.494-1.165q-1.206-.932-.535.425.768 1.535 2.221 1.96 1.494.452 1.919-1.22a.206.192 75.1 0 0-.329-.192q-.164.151-.384.219-.973.302-1.398-.027zm14.722 2.426l.672.356a.548.548 0 0 0 .781-.631q-.274-.987-.891-1.809-.507-.672-1.165-.151-.521.398-.26 1.193.219.699.864 1.042zm-9.156.274q.398.027.329-.37-.233-1.234-1.426-1.659-1.083-.384-.726.699.411 1.247 1.823 1.33zm5.017 2.399l1.672-3.578q.548-1.179-.644-.658l-4.633 2.042q-.768.343-.398 1.083.891 1.796 2.92 1.796.768 0 1.083-.685zm3.934-.973l-.85-1.316a.631.631 0 0 0-1.028-.041q-.795 1.028.932 2.796 1.343 1.371 2.481-.192.343-.48.37-1.193.041-1.11-.754-.315l-.356.343q-.452.466-.795-.082zm-22.584 2.579a.452 2.029 34.4 0 0 1.519-1.418.452 2.029 34.4 0 0 .773-1.929.452 2.029 34.4 0 0-1.519 1.418.452 2.029 34.4 0 0-.773 1.929zm12.249.862q.864-.74 1.288-1.796a.48.48 0 0 0-.672-.617q-1.234.631-1.357 2.042-.096 1.11.74.37zm3.413 1.398l1.042-1.412q.507-.699-.329-.836l-1.083-.192q-.781-.137-.85.644l-.123 1.288a.74.74 0 0 0 1.343.507zm-28.991-1.727q-.48.068-.809.384-.713.699.274.535.822-.123 1.659.11 1.261.356.315-.548-.603-.576-1.439-.48zm12.186 3.632q-.398.178-.836.206-.877.055-.343.754.631.836 2.042-.027a1.659 1.672 65.7 0 0 .713-1.878l-.576-1.878q-.206-.685-.891-.507-.439.123-.672.548-.329.631.137 1.165l.631.74a.548.562 57.9 0 1-.206.877zm-7.539-2.166a.384.398 45.6 0 0-.014.631q.946.726 1.892-.11a.562.562 0 0 0-.37-.987q-.809-.014-1.508.466zm33.734 2.111q1.247.37 2.207-.398.713-.576-.192-.466l-3.989.466q-.37.041-.288.398l.082.356a.164.164 0 0 0 .233.11l.795-.37a1.563 1.604 40.9 0 1 1.151-.096zm-10.513 1.083a.192.192 0 0 0 .11.302l1.384.302a.507.493 4 0 0 .617-.535l-.11-.96q-.151-1.535-1.097-.302zm-25.605 2.07q-.11.096-.644.151-.726.082-.151.535.713.562 1.124 1.33.315.576.946.754l2.221.603a.493.493 0 0 0 .631-.493q-.137-4.935-4.606-6.278a1.85 1.837 22.7 0 0-2.125.864q-.685 1.22-.027 2.385.466.809.685-.096.315-1.234 1.563-1.384a.781.96 26.1 0 1 .384 1.631zm4.318-1.055q.041 1.288 1.206 1.48a.452.452 0 0 0 .452-.699q-.425-.658-1.042-1.11-.644-.493-.617.329zm6.744 1.275l.493.137q.877.26.548-.589-.302-.781-1.261-.521a.027.041 31.7 0 0-.027.014q-1.234.452-1.755.822-1.055.754.288.466.356-.068.685-.233.493-.26 1.028-.096zm-14.831 1.165l-.26-.452a.356.356 0 0 0-.644.027q-.521 1.193.11 2.166.356.548.973.617.932.096 1.316-.85.082-.206-.11-.329-.589-.356-1.124-.85a1.028 1.028 0 0 1-.26-.329zm40.217 3.701q-.356 1.11.74 1.439a1.261 1.261 0 0 0 1.617-1.288l-.082-1.439q-.055-.74-.768-.864-1.905-.356-3.824-.219-1.645.137-.082.644l1.809.589a.905.918 17.3 0 1 .589 1.138zm5.702 3.92q.603.356.905.918.329.631.74.055.521-.726 1.33-1.097a.562.562 0 0 0-.26-1.069q-1.467.11-2.714.809a.219.219 0 0 0 0 .384zm-2.07 2.138q.822-.178 1.22-.905.548-.987-.576-.864-2.577.288-2.824 3.057a.809.809 0 0 1-.932.726q-.809-.137-1.549.082a.315.315 0 0 0-.11.548q3.125 2.495 2.234 3.564-.178.219-.768.493-.658.302-.123.809.151.137.411.192.247.055.507-.082.768-.384 1.165-1.097.274-.521-.055-1.001-.644-.946.11-1.809.699-.781 1.549-.452.617.233.617.905.014 1.001-.987 1.151-.864.137-.384.864l.959 1.426a.552.552 0 0 0 .973-.521q-.822-1.946.987-2.508 1.097-.329.233-1.083-1.001-.891.178-1.631a.48.48 0 0 0-.425-.85q-1.247.466-2.495-.055-1.453-.617.082-.96zm9.554 1.124q-.288-.452-.617-.041-.425.493-.178 1.316.164.589.548.672.548.11.589-.439.082-.809-.343-1.508zm-45.193 3.194l1.59-.699q1.069-.466-.096-.466-1.124 0-1.604.535-.973 1.11.11.631zm30.129-.027a.425.439 57 0 0-.535-.11q-.631.315-.288 1.138.356.822 1.206.781 1.028-.055.384-.864zm12.734.877q-1.193.836-.219 1.96a.589.589 0 0 0 .85.041q.425-.384.658-.932a.877.864 84.5 0 0-1.288-1.069zm-3.345 7.251a.371.371 0 0 0 .74.041l.288-4.619q.041-.672-.617-.507l-.548.151a.493.493 0 0 0-.356.617q.603 2.111.493 4.318zm-5.579.905q.192.014.384.014a.521.507 86.4 0 0 .535-.617q-.26-1.275-1.604-.973-1.097.233-1.508.754a.795.795 0 0 0 .932 1.22l.685-.288q.274-.123.576-.11zm1.193 2.81q.576-.206.836-.521.274-.343.055-.809-.219-.48-.672-.768-.631-.439-.754.329-.123.795.123 1.563a.315.315 0 0 0 .411.206zm8.389 2.988a.26.274 83.9 0 0 .302-.37q-.589-1.357-2.001-1.33a.384.384 0 0 0-.26.672q.822.795 1.96 1.028z"/><path d="M239.425 258.066q-.151-.754-.932-.74l-5.387.151q-.658.014-.658.685l.096 51.197a.589.589 0 0 1-.589.603l-23.563.027a.685.685 0 0 1-.685-.699l.247-136.154q0-.658.658-.658 17.216.274 34.378.137c11.5-.096 21.397 5.209 26.304 15.489 1.659 3.482 2.947 9.088 2.851 13.104q-.384 16.682-.315 33.363 0 1.755-1.768 6.621c-1.48 4.057-4.236 6.977-7.059 10.047a2.618 2.604 60.5 0 0-.631 2.303l12.008 56.008q.123.562-.452.548l-23.275-.192a.96.973 81.8 0 1-.932-.685q-1.247-4.208-1.919-7.827-4.044-21.877-8.375-43.329zm-18.573-79.79q-.164.37-.151.768.027.672.685.713.768.041 1.097-.672a.795.795 0 0 0-.672-1.124q-.288-.014-.562.027a.48.466 8.3 0 0-.398.288zm-2.042 7.388q.288 1.439.699.027.644-2.248.178-4.578-.178-.932-.48-.027-.822 2.44-.398 4.578zm16.325-4.619a.26.26 0 0 0-.452.233q.48 2.001 1.933 3.55.946.987.493-.302-.658-1.933-1.974-3.482zm-1.809 1.138q-.192-.302-.576-.315a.562.548 4.1 0 0-.548.466q-.26 1.837 1.59 1.809a.617.631 65.7 0 0 .411-1.083l-.548-.493a1.234.302 35.6 0 1-.329-.384zm-3.742 1.48q-.219-.877-.521-1.138-1.453-1.193-.96.617.398 1.467 2.193 1.892.877.219.219-.411l-.836-.809a.26.315 6.3 0 1-.096-.151zm-12.953.562q.493.014.891-.302a.631.617 35.1 0 0-.192-1.083q-1.631-.562-2.659.809a.548.548 0 0 0 .589.864l.754-.219q.302-.096.617-.069zm38.504 1.59q-2.495 1.247.274.836 1.206-.178 2.399.096.576.137.493-.452l-.151-1.097a.384.384 0 0 0-.48-.329q-1.302.343-2.536.946zm-37.462 6.648l1.576 1.302q.206.164.411 0l.329-.26q.26-.206 0-.425-2.44-1.892-5.099-.74-.603.26-.562 1.001a.603.589 73.6 0 0 .891.493q.795-.439 1.33-1.22a.781.781 0 0 1 1.124-.151zm14.598 3.441l.137 39.806a.973.973 0 0 0 .973.973l5.716-.027a8.636 8.444 89.8 0 0 8.416-8.663l-.082-24.481a8.636 8.444 89.8 0 0-8.471-8.608l-5.716.027a.973.973 0 0 0-.973.973zm-17.299-.439q-.288 1.179.658 1.782a.658.658 0 0 0 1.001-.439q.11-.631-.014-1.288a.85.836 46.8 0 0-1.645-.055zm-.055 8.197q.685.055 1.288.384a.864.85 20.8 0 0 1.234-.548l.164-.672a1.275 1.247 24.3 0 0-.507-1.316q-.946-.658-1.864-.014-.631.425-1.22-.041l-1.686-1.357q-.603-.48-.932.206-.932 1.933.973 2.961a.836.836 0 0 1-.233 1.549l-.631.137a.768.768 0 0 0-.562.973l.589 1.919q.274.891 1.055.356.713-.48 1.604-.384a.535.535 0 0 1 .055 1.055l-1.014.247a.315.329 79.2 0 0-.247.356q.137.932 1.138.247 1.974-1.343 3.194-2.412 1.563-1.357-.493-1.7-1.316-.206-2.262-1.22a.425.439 71 0 1 .356-.726zm6.908-.192q.466-.877-.672-.164a.493.466 72.3 0 0-.219.452l.288 3.029a.288.288 0 0 0 .548.096q.548-1.261.027-2.481-.206-.466.027-.932zm2.906-.548l-.603.713q-.589.685.315.809.439.055.795-.302.603-.589.548-1.316a.466.48 83.4 0 0-.562-.439q-.26.055-.343.274-.055.151-.151.26zm-.768 5.442l-.768.576q-.644.507.096.864.425.206.987-.137.603-.37.425-1.055a.466.466 0 0 0-.74-.247zm40.834 11.679q-.576-.164-1.179-.151a.206.192 45.1 0 0 0 .398q1.426.041 1.782 1.206.466 1.439.699.055l.329-1.837a.082.082 0 0 0-.123-.096l-.781.356a1.055 1.11 40.8 0 1-.726.069zm-4.332 3.043a.631.617 8.4 0 0 .576.768l2.166.11a.699.699 0 0 0 .507-1.206l-1.275-1.193a.822.836 44 0 0-1.165.027q-.589.617-.809 1.494zm-6.566 3.632a.398.398 0 0 0 .672-.082q.987-2.193-1.206-3.303a1.398 1.398 0 0 0-1.59.233l-.302.302a.603.603 0 0 0 .164.987q1.343.644 2.262 1.864zm.219 1.892q.384-.891-.26-1.741-.123-.151-.288-.041l-.356.219q-.288.178-.123.466 1.069 2.015-.082 4.126a.288.274 37.1 0 0 .055.329l.302.315q.493.48.754-.151.932-2.193 3.043-1.796.809.151.535-.617l-.411-1.138q-.206-.548.082-1.055l.219-.398q.37-.631.946-.206l1.357 1.001q.603.452.973-.192l.85-1.467q.274-.452-.219-.658l-2.138-.891q-.891-.37-1.151.562-.466 1.672-2.248 1.439a.631.631 0 0 0-.562 1.042l.302.329q.493.548.137 1.206-.562 1.028-1.206.699-.891-.466-.507-1.384zm4.702 1.878q-.206.055-.411.096a.274.288 67.4 0 0-.178.411q.164.247.329.48.192.274.507.137 1.316-.576 1.878-1.864a.343.343 0 0 0-.507-.411l-1.453 1.069a.507.37 9.2 0 1-.164.082zm-8.074 3.454l.288-.631q.411-.946-.535-.535-2.344 1.028 1.069 3.893.699.576 1.604.603.466.014.809-.206.864-.603-.096-1.014l-2.769-1.165q-.658-.288-.37-.946zm-2.412 2.44q-.493-.178-1.042-.11-.589.082-.726.658-.082.329.041.644.164.411.576.274.918-.315 1.261-1.234.069-.178-.11-.233zm11.418 1.247q.274-.123.425-.329.658-.918-.466-.562-.644.206-1.042.891-.713 1.206.178 1.96.521.452.356-.219-.151-.617.027-1.179a.946.946 0 0 1 .521-.562zm-8.361 1.933l1.7 2.385q0 0 0 0l.302-.192q.219-.151.096-.398l-1.905-3.331q-.356-.631-1.042-.384c-2.837 1.014-4.098 5.99-5.743 6.278q-.329.069-.685.041-.74-.041-.329.576.48.713.685 1.549a.589.589 0 0 0 1.124.041q1.165-3.728 3.728-6.662a1.33 1.33 0 0 1 2.07.096zm-.288 2.371q-.014-.219-.11-.37-.096-.151-.219-.014l-3.701 3.948a.452.452 0 0 0 .343.768q2.125-.055 3.811-1.768 1.11-1.11.014-2.248-.137-.137-.137-.315zm5.332 5.867l-.343-.918q-.548-1.508-.726.082-.192 1.782.987 2.933.452.439 1.083.384.343-.041.603-.274.548-.507-.123-.85l-.576-.315q-.658-.343-.905-1.042zm-4.811 3.413q-.26-3.057-3.098-3.18-.946-.041-.781.905l.466 2.577q.123.644.768.603l1.96-.11q.74-.055.685-.795zm-14.461-1.247q.672-.178 1.234-.562a.247.247 0 0 0-.178-.452q-1.796.233-3.112 1.508a.356.356 0 0 0 .233.603q.754.027 1.22-.672.219-.329.603-.425zm12.049 5.414l1.11.302q.452.123.768-.219.219-.233.302-.562.233-.836-.631-.754-2.371.247-4.071-1.247-.768-.672-.918.329-.617 3.948 2.755 4.633 1.741.356.535-.932-.315-.356-.507-.795-.452-1.055.658-.754zm-22.082-.699q-.466.809.411.521 1.316-.425 1.357-1.741a.493.493 0 0 0-.918-.26zm15.393-.493q.082 1.864 1.522 2.618a.452.452 0 0 0 .603-.603l-1.522-3.07a.356.356 0 0 0-.658.027q-.247.576.055 1.028zm-26.362 2.805a1.028 1.234 40.3 0 0 1.582-.276 1.028 1.234 40.3 0 0 .014-1.606 1.028 1.234 40.3 0 0-1.582.276 1.028 1.234 40.3 0 0-.014 1.606zm35.039 1.568q-1.864 1.604-3.153.562-.603-.48-.85.247-.425 1.193-1.782.74-.85-.288-.329.439l3.934 5.593q.411.576 1.124.631l1.042.068q.521.041.48-.48l-.178-1.823a.48.48 0 0 0-.576-.425q-2.275.48-3.016-1.412-.343-.864.589-.85c1.933.014 3.043-1.234 2.714-3.29q1.933-.781 2.426-2.577.219-.85-.576-.493-1.672.726-1.85 3.07zm-4.469 7.361q-.11-.343-.37-.562-.466-.398-.754.151-.96 1.809 1.563 2.084a.302.302 0 0 0 .288-.466l-.521-.781q-.123-.206-.206-.425zm-19.958 8.375a.411.411 0 0 0 .233.411q.685.315 1.069-.521.343-.754-.315-1.48a.48.48 0 0 0-.822.274zm117.745 17.558c-5.14 13.419-15.983 17.874-29.58 18.19q-16.257.37-32.335.247a.644.644 0 0 1-.644-.644l-.014-135.099q0-1.494 1.48-1.617 5.031-.439 10.486-.274c9.321.288 19.409-.247 26.524.274 14.804 1.083 25.674 12.885 25.797 27.716l-.082 24.673q.027 20.218-.014 40.436c-.041 11.295.795 19.78-1.617 26.099zm-32.774-106.752q-.617.192-.946.726-.411.672.356.48 1.371-.356 2.179-1.453.685-.946-.411-.562-.713.247-1.179.809zm15.942 1.151q-.096.274.164.356.576.206 1.124-.014.535-.219.699-.754.11-.37-.014-.658-.288-.672-.918-.288-.768.493-1.055 1.357zm6.799 5.497q-.356-1.083-1.179-1.878a.493.493 0 0 0-.822.466q.343 1.343 1.617 1.796a.302.302 0 0 0 .384-.384zm-27.73 4.674l-.164 89.947a1.261 1.261 0 0 0 1.261 1.261l5.058.014a8.567 8.8.1 0 0 8.581-8.786l.137-74.869a8.567 8.8.1 0 0-8.553-8.814l-5.058-.014a1.261 1.261 0 0 0-1.261 1.261zm28.881 2.55q-.233.466-.288.96-.027.233.192.26.192.027.384.055.288.055.219-.233-.631-2.906 2.467-3.578a.055.041 69.2 0 0 .027-.069l-.123-.329q-.192-.466-.603-.178-.726.507-1.59.288-.946-.233-.781.74l.219 1.275a1.22 1.234 53.4 0 1-.123.809zm.589 5.757q-.26-1.138.672-1.782.452-.315-.082-.452-.37-.096-.726-.055-.713.069-.918.768l-.699 2.44a.439.425 86.8 0 0 .576.521q1.165-.466 2.385-.356a.795.809 7.9 0 1 .713.96q-.356 1.809 1.275 2.673.398.206.452-.233l.068-.658a1.042 1.014 29.1 0 0-.219-.74q-.864-1.055 0-2.097a.48.48 0 0 0-.493-.768l-1.782.507q-1.001.288-1.22-.726zm-5.195 31.54a.644.644 0 0 1 .493 1.124q-.754.672-.932 1.672a.905.946 54.9 0 0 1.823.274l1.069-4.784a.617.617 0 0 0-.891-.672q-2.248 1.22-4.03 3.112-.055.055.137.219l.014.014q.137.123.315-.027.85-.809 2.001-.932zm-35.365 7.58l.274.699q.288.768.877.206.37-.356.274-.946-.068-.466-.535-.507l-.452-.041q-.699-.069-.439.589zm.631 7.882q.178 0 .356.027.973.11.439-.713l-1.453-2.248q-.055-.069-.137-.069-.219 0-.439 0-.425-.027-.26.37.726 1.782-.151 3.495a.055.055 0 0 0 .082.069q.37-.384.809-.699.343-.233.754-.233zm-2.7 12.679q0-.425-.617-.233-.274.082-.48.315-.562.658-1.357 1.083a.411.411 0 0 0 .37.726q.699-.356 1.151-1.028a.329.329 0 0 1 .535-.027q1.796 2.07 2.824 1.48 1.384-.781 2.207-2.193.535-.877-.493-.726-1.261.178-2.262 1.001a.905 1.206 65.1 0 1-1.878-.398zm6.264 3.358q-2.495.11-3.427 2.385a.276.276 0 0 0 .48.274q1.522-1.933 3.399-.576.521.384.877-.164 1.028-1.59.726-3.564-.178-1.069-.617-.068l-.439 1.028q-.288.658-1.001.685zm-9.54 4.044l.48-1.988q.233-.959 1.206-.754l2.454.535q.082.014.096-.055l.041-.384q.027-.206-.164-.26-2.988-.795-5.031 1.357-.617.644-.466 1.522l.439 2.508a.685.685 0 0 0 1.042.466q.987-.631 1.357-1.796.068-.219-.151-.247l-.768-.123q-.699-.096-.535-.781zm2.906 3.276l.302.274q.192.178.356-.041 1.631-2.234 4.427-2.44.343-.027.302-.384l-.055-.356a.178.178 0 0 0-.219-.151q-2.92.754-5.127 2.851-.137.123.014.247zm5.36 1.042q.37-.726-.425-.576l-1.275.26a.836.836 0 0 0-.672.96q.096.548.548.754.617.26 1.097-.288.329-.37.726-1.11zm-4.277 7.95q.795.055 1.371-.343a.466.452 32.3 0 0-.192-.822q-1.083-.178-1.467.672a.343.356 14.6 0 0 .288.493zm-1.617 7.662l-.178-6.017q-.014-.411-.398-.343l-3.249.548q-.178.041-.206.219-.041.192.014.411a.041.027 58.3 0 0 .027.014l1.261-.398a.713.726 74.7 0 1 .905.507l1.316 5.099q.055.206.302.164h0q.206-.027.206-.206zm2.714-4.729a.507.493 21.3 0 0-.329-.74q-.822-.206-1.288.726-.343.672-.068 1.22.48.905.987.014zm35.604 6.532a.726 1.384 20.6 0 0 1.167-1.04.726 1.384 20.6 0 0-.193-1.552.726 1.384 20.6 0 0-1.167 1.04.726 1.384 20.6 0 0 .193 1.552zm158.655 175.158l.466-174.137a1.001 1.001 0 0 1 1.014-1.001l7.868.068a1.001 1.001 0 0 1 .987 1.001l-.137 184.157a1.001 1.001 0 0 1-1.001 1.001l-184.006.082a1.001 1.001 0 0 1-1.001-1.001l-.027-7.923a1.001 1.001 0 0 1 1.001-1.001l173.836-.247a1.001 1.001 0 0 0 1.001-1.001z"/><rect x="93.196" y="315.801" width="313.293" height="6.854" rx=".384"/><path d="M195.747 331.896a1.151 2.577 51.2 0 1-1.287 2.512 1.151 2.577 51.2 0 1-2.73.717 1.151 2.577 51.2 0 1 1.287-2.512 1.151 2.577 51.2 0 1 2.73-.717zm-117.136 7.687q-.644-.26-1.453-.096a1.384 1.412 83.6 0 0-1.097 1.357l-.014 12.981a1.467 1.439 2 0 0 1.357 1.439l.48.027a1.535 1.535 0 0 0 1.645-1.522l.027-2.81q0-.768.781-.809l1.288-.055q.973-.041 1.11.918c1.275 9.252-9.979 10.993-10.075.713-.027-3.783-1.138-12.076 2.042-14.694q2.207-1.796 5.058-.439c2.55 1.22 3.303 3.879 3.07 6.484q-.069.822-.891.809l-1.713-.027a.726.726 0 0 1-.713-.877q.247-1.234-.219-2.577-.206-.617-.685-.822zm16.304 14.164a4.811 4.811 0 0 1-4.828 4.794l-.658-.003a4.811 4.811 0 0 1-4.794-4.828l.044-12.583a4.811 4.811 0 0 1 4.828-4.794l.658.003a4.811 4.811 0 0 1 4.794 4.828zm-3.377-12.697a1.59 1.59 0 0 0-1.59-1.59h-.329a1.59 1.59 0 0 0-1.59 1.59v12.72a1.59 1.59 0 0 0 1.59 1.59h.329a1.59 1.59 0 0 0 1.59-1.59zm22.465-1.151c-2.289 3.564 4.194 7.251 5.579 10.239 4.345 9.348-10.5 11.994-9.485 2.33a.918.905 5.3 0 1 .987-.809l1.645.151a.644.658.7 0 1 .576.603l.096 1.686q.055.877.905 1.11 1.494.411 2.495-.918a2.166 2.152 41.7 0 0-.164-2.796c-3.331-3.454-8.17-7.155-5.839-12.748 1.933-4.702 9.239-2.687 9.348 2.961q.014.617-.603.672l-1.48.151a.918.918 0 0 1-.973-.685l-.356-1.494a1.508 1.508 0 0 0-2.728-.452zm22.617 10.554l-.027 7.224a.603.603 0 0 1-.603.603h-2.289a.48.48 0 0 1-.48-.48l.027-20.753a.535.521 0 0 1 .535-.521c2.906.055 8.115-.836 9.28 2.865q1.398 4.386-1.138 7.964-.425.589.178 1.028.48.343.809.864.398.658.425 1.426l.219 7.279q.014.315-.302.315l-2.399.014q-.713 0-.726-.699l-.164-6.155a2.015 2.001 8.8 0 0-1.371-1.864l-.507-.164q-1.467-.48-1.467 1.055zm3.319-9.734a1.028 1.028 0 0 0-1.021-1.035l-1.288-.008a1.028 1.028 0 0 0-1.035 1.021l-.032 4.551a1.028 1.028 0 0 0 1.021 1.035l1.288.01a1.028 1.028 0 0 0 1.035-1.021zm10.759 14.655l.562-.082a1.247 1.247 0 0 0 1.069-1.234l.027-16.723q0-.891.891-.836l1.659.123q.685.041.685.74l-.014 16.586a4.633 4.647 1.6 0 1-4.893 4.633l-1.371-.068a4.153 4.153 0 0 1-3.92-4.126l-.069-16.942a.918.918 0 0 1 .973-.918l1.755.082q.713.041.713.754v16.325a1.7 1.7 0 0 0 1.933 1.686zm12.967-15.763q-.411-.178-.946-.164-1.672.027-1.672 1.7v12.693a1.439 1.439 0 0 0 1.426 1.439h.768a1.22 1.234 1 0 0 1.234-1.206l.082-3.139a.809.809 0 0 1 .795-.795l1.439-.027q.699 0 .85.672c2.07 8.91-9.91 11.363-9.979 1.631q-.041-5.661.055-11.267c.123-7.073 10.856-6.634 10.102 1.933q-.069.822-.891.809l-1.713-.014a.74.74 0 0 1-.713-.891q.26-1.275-.247-2.659-.192-.535-.589-.713zm12.035.055q-1.11-.48-2.083.151-.603.384-.603 1.11v12.926q0 1.467 1.467 1.412l.658-.014a1.426 1.439 88.9 0 0 1.384-1.426v-3.153a.425.425 0 0 1 .398-.425l2.289-.151q.288-.014.343.26c2.125 9.623-9.718 11.651-9.883 2.166-.082-4.633-2.221-17.477 5.88-16.243q5.072.781 4.03 7.333-.041.288-.329.274l-2.275-.068a.48.48 0 0 1-.466-.493v-2.426q0-.891-.809-1.234z"/><rect x="181.895" y="336.568" width="3.345" height="21.685" rx=".521"/><path d="M198.086 353.683a4.88 4.88 0 0 1-4.888 4.871l-.548-.001a4.88 4.88 0 0 1-4.871-4.888l.022-12.501a4.88 4.88 0 0 1 4.888-4.871l.548.001a4.88 4.88 0 0 1 4.871 4.888zm-3.391-12.644a1.59 1.59 0 0 0-1.587-1.593l-.302-.001a1.59 1.59 0 0 0-1.593 1.587l-.022 12.72a1.59 1.59 0 0 0 1.587 1.593l.302.001a1.59 1.59 0 0 0 1.593-1.587zm50.336 12.677a4.825 4.825 0 0 1-4.825 4.825h-.631a4.825 4.825 0 0 1-4.825-4.825V341.16a4.825 4.825 0 0 1 4.825-4.825h.631a4.825 4.825 0 0 1 4.825 4.825zm-3.397-12.696a1.549 1.549 0 0 0-1.552-1.546l-.411.001a1.549 1.549 0 0 0-1.546 1.552l.022 12.775a1.549 1.549 0 0 0 1.552 1.546l.411-.001a1.549 1.549 0 0 0 1.546-1.552zm25.192 12.819l-.014-16.558q0-.617.603-.644l2.042-.096a.562.576 89.3 0 1 .603.576l-.11 17.504a3.879 3.893 87.8 0 1-3.578 3.852l-1.549.123q-4.948.384-4.962-4.578l-.041-17.011q0-.343.329-.356l2.659-.055q.411-.014.411.384v16.805a1.535 1.522 4.2 0 0 1.316 1.508l.535.068q1.768.26 1.755-1.522zm9.444 1.357l4.647-.014a.562.562 0 0 1 .562.48l.274 1.974a.562.562 0 0 1-.548.644h-8.265a.562.562 0 0 1-.562-.562v-20.492a.562.562 0 0 1 .507-.562l2.221-.192a.562.562 0 0 1 .617.562l-.014 17.6a.562.562 0 0 0 .562.562zm40.203.014q1.7.466 2.618-1.083a2.262 2.275 37.7 0 0-.343-2.741c-2.961-3.057-7.183-6.237-6.223-11.075 1.288-6.47 10.774-4.729 9.636 1.659q-.11.617-.726.576l-1.659-.137q-.699-.055-.672-.754c.041-.754.014-1.48-.672-1.988q-1.686-1.288-2.632 1.809a2.07 2.097 34.5 0 0 .329 1.85c2.783 3.701 7.566 6.388 5.963 11.87-1.686 5.771-10.349 4.153-9.801-3.098q.014-.26.288-.288l2.303-.137a.425.439 84.2 0 1 .466.37l.233 2.125q.096.822.891 1.042zm17.995-1.476a4.798 4.798 0 0 1-4.789 4.806l-.658.001a4.798 4.798 0 0 1-4.806-4.789l-.022-12.611a4.798 4.798 0 0 1 4.789-4.806l.658-.001a4.798 4.798 0 0 1 4.806 4.789zm-3.38-12.756a1.508 1.508 0 0 0-1.51-1.505l-.521.001a1.508 1.508 0 0 0-1.505 1.511l.022 12.857a1.508 1.508 0 0 0 1.51 1.505l.521-.001a1.508 1.508 0 0 0 1.505-1.511zm8.907-.97a1.905 1.919 53.3 0 0-.384 2.55c2.207 3.331 6.538 5.908 6.717 10.226.329 7.923-10.609 7.813-10.034-.315a.864.864 0 0 1 .918-.795l1.33.096a1.042 1.042 0 0 1 .96.973l.068 1.33q.055.905.918 1.151 1.508.425 2.508-.973a2.179 2.179 0 0 0-.206-2.769c-3.139-3.262-7.388-6.374-6.168-11.692 1.275-5.579 9.417-4.51 9.732 1.946q.027.603-.576.658l-1.686.137q-.699.068-.836-.631l-.288-1.412a1.288 1.302 1.5 0 0-.932-.987q-1.069-.288-2.042.507zm22.795.329l-.014 4.715a.644.644 0 0 0 .658.644l3.345-.082a.644.644 0 0 1 .658.631l.041 1.946a.644.644 0 0 1-.658.658l-3.345-.055a.644.644 0 0 0-.658.631l-.041 5.113a.644.644 0 0 0 .644.658l4.633-.014a.644.644 0 0 1 .644.631l.055 1.809a.644.644 0 0 1-.631.658h-8.074a.644.644 0 0 1-.644-.644l.014-20.41a.644.644 0 0 1 .644-.644h8.06a.644.644 0 0 1 .644.685l-.096 1.809a.644.644 0 0 1-.644.603l-4.592.014a.644.644 0 0 0-.644.644zm10.952 3.783l-.068 13.995a.178.178 0 0 1-.178.178l-2.618-.014a.178.178 0 0 1-.178-.178l.041-21.383a.178.178 0 0 1 .178-.178l3.92.11a.178.178 0 0 1 .164.123l3.029 11.446a.179.179 0 0 0 .356-.041v-11.336a.178.178 0 0 1 .164-.178l2.714-.315a.178.178 0 0 1 .192.178l.014 21.589a.178.178 0 0 1-.178.178l-3.098-.027a.178.178 0 0 1-.164-.137l-3.619-14.091a.178.178 0 0 0-.192-.137l-.329.055a.178.178 0 0 0-.151.164z"/><rect x="384.064" y="336.568" width="3.372" height="21.712" rx=".576"/><path d="M406.475 355.21l4.565-.041a.562.562 0 0 1 .562.576l-.014 1.988a.562.562 0 0 1-.562.548h-7.854a.562.562 0 0 1-.562-.562l-.027-20.492a.562.562 0 0 1 .507-.548l2.234-.219a.562.562 0 0 1 .617.562l-.027 17.628a.562.562 0 0 0 .562.562zm10.048-14.996l.055 4.921a.562.562 0 0 0 .576.562l3.495-.082a.562.562 0 0 1 .576.548l.055 2.084a.562.562 0 0 1-.576.576l-3.55-.041a.562.562 0 0 0-.576.562l-.014 5.291a.562.562 0 0 0 .562.562l4.811-.014a.562.562 0 0 1 .562.548l.055 1.974a.562.562 0 0 1-.562.576h-8.197a.562.562 0 0 1-.562-.562v-20.52a.562.562 0 0 1 .562-.562l8.183-.096a.562.562 0 0 1 .562.576l-.014 2.042a.562.562 0 0 1-.576.548l-4.852-.055a.562.562 0 0 0-.576.562zM100.2 343.915l.041 13.776q.014.589-.589.589l-1.864-.014q-.562-.014-.562-.576l.027-20.314q0-.768.781-.768h3.029a.576.603 83.2 0 1 .576.439l2.577 9.883q.822 3.166.795-.096l-.082-9.513q-.014-.699.699-.699l1.988.014q.384 0 .384.384v20.561q0 .685-.699.699h-2.056q-.713.014-.905-.685l-3.687-13.735q-.466-1.713-.452.055zm28.018-3.729l-.014 17.477a.631.631 0 0 1-.631.631l-2.152-.027a.631.631 0 0 1-.631-.631v-17.463a.631.631 0 0 0-.713-.631l-1.946.247a.631.631 0 0 1-.699-.548l-.274-1.919a.631.631 0 0 1 .617-.713l9.527-.027a.631.631 0 0 1 .631.726l-.302 1.946a.631.631 0 0 1-.699.535l-2.015-.233a.631.631 0 0 0-.699.631zm74.759 3.098l.082 14.845a.151.151 0 0 1-.151.151l-2.728-.027a.151.151 0 0 1-.151-.151l.027-21.342a.151.151 0 0 1 .151-.151l3.989-.027a.151.151 0 0 1 .151.11l3.139 11.953a.151.151 0 0 0 .164.11l.274-.041a.151.151 0 0 0 .137-.151l-.329-11.802a.151.151 0 0 1 .151-.151l2.769.027a.151.151 0 0 1 .151.151v21.342a.151.151 0 0 1-.151.151h-3.208a.151.151 0 0 1-.137-.11l-4.044-14.927a.151.151 0 0 0-.288.041zm25.537 2.988l-1.453 11.295q-.082.726-.822.726l-1.823-.014q-.768 0-.891-.754l-1.686-11.24a.288.275 41.7 0 0-.562.027l-.233 11.295q-.014.672-.685.672l-1.672.014a.507.507 0 0 1-.507-.507l.014-20.739q0-.452.452-.452l3.811.027q.452 0 .535.452l2.166 13.323q.26 1.645.507-.014l2.015-13.323q.069-.493.562-.48l3.797.041q.425.014.411.425l-.014 20.506q0 .726-.713.726l-1.357.014q-1.001 0-1.028-1.001l-.247-10.993a.288.288 0 0 0-.576-.027zm18.902-9.279a.425.425 0 0 1 .425-.425l5.113.014a4.88 5.058.2 0 1 4.852 5.072l-.027 11.596a4.88 5.058.2 0 1-4.907 5.044l-5.113-.014a.425.425 0 0 1-.425-.425zm6.924 3.533a.85.85 0 0 0-.851-.848l-1.974.003a.85.85 0 0 0-.848.851l.024 13.735a.85.85 0 0 0 .851.848l1.974-.003a.85.85 0 0 0 .848-.851zm35.267 13.875l-3.427-.041a.631.631 0 0 0-.644.589l-.151 2.728a.631.631 0 0 1-.631.589l-1.837.027a.631.631 0 0 1-.631-.726l3.112-20.451a.631.631 0 0 1 .631-.535l3.975.027a.631.631 0 0 1 .617.535l3.249 20.424a.631.631 0 0 1-.631.726l-2.289-.041a.631.631 0 0 1-.631-.617l-.082-2.618a.631.631 0 0 0-.631-.617zm-2.056-12.227l-1.247 8.581q-.096.644.562.644h2.029q.644 0 .548-.644l-1.33-8.594q-.288-1.864-.562.014zm11.446 8.238l.041 7.265a.617.603 0 0 1-.617.603h-2.015q-.726-.014-.726-.726v-20.191q0-.781.781-.768l6.045.082a2.796 2.783 79.2 0 1 2.563 1.755q1.933 4.729-.658 8.965-.356.589.151 1.042l.658.603a1.371 1.371 0 0 1 .466 1.001l.288 7.58q.027.672-.644.658l-2.056-.014q-.685-.014-.699-.699l-.137-6.209a1.919 1.905 4.5 0 0-1.59-1.85l-.644-.11q-1.206-.219-1.206 1.014zm3.392-9.69a1.042 1.042 0 0 0-1.033-1.051l-1.316-.011a1.042 1.042 0 0 0-1.051 1.033l-.039 4.523a1.042 1.042 0 0 0 1.033 1.051l1.316.011a1.042 1.042 0 0 0 1.051-1.033zm51.999-.481l-.014 17.422a.631.631 0 0 1-.631.631l-2.152-.027a.631.631 0 0 1-.631-.631l-.014-17.477a.631.631 0 0 0-.713-.631l-1.919.26a.631.631 0 0 1-.713-.535l-.274-1.919a.631.631 0 0 1 .617-.726l9.568-.014a.631.631 0 0 1 .617.74l-.343 1.919a.631.631 0 0 1-.672.521l-2.042-.164a.631.631 0 0 0-.685.631zm44.466 6.84c2.125 2.591 2.81 9.595-1.7 10.788q-3.18.85-6.497.274-.726-.137-.726-.864l.014-19.876q0-.644.644-.699c4.222-.343 8.732-1.069 9.321 4.112q.384 3.331-1.083 5.318-.356.48.027.946zm-4.825-7.457q-.836-.096-.822.74l.082 4.167q.014.658.658.795c3.07.631 3.098-2.783 2.55-4.674q-.219-.74-.987-.836zm2.862 9.87a1.001 1.001 0 0 0-1.008-.994l-1.7.012a1.001 1.001 0 0 0-.994 1.008l.032 4.633a1.001 1.001 0 0 0 1.008.994l1.7-.012a1.001 1.001 0 0 0 .994-1.008z"/></svg>