<svg xmlns="http://www.w3.org/2000/svg" viewBox="0 0 512 354"><path d="M16,304.5V272.4H31.8a21.3,21.3,0,0,1,9.4,2,14.4,14.4,0,0,1,6.4,5.5,17,17,0,0,1,0,17.1,14.6,14.6,0,0,1-6.4,5.6,21.3,21.3,0,0,1-9.4,1.9Zm10.8-8.4h4.5a8.8,8.8,0,0,0,4.1-.9,5.9,5.9,0,0,0,2.6-2.6,7.7,7.7,0,0,0,1-4.2,7.6,7.6,0,0,0-1-4.1,6.5,6.5,0,0,0-2.6-2.6,10.3,10.3,0,0,0-4.1-.8H26.8Z"/><path d="M64.9,296.4H81v8.1H54.3V272.4H80.4v8.2H64.9Zm-.7-12.1H78.5v7.8H64.2Z"/><path d="M113.2,304.5V280.8h-9.4v-8.4h29.6v8.4H124v23.7Z"/><path d="M138.5,304.5V272.4h10.8v32.1Z"/><path d="M167.4,296.4h16v8.1H156.8V272.4h26v8.2H167.4Zm-.7-12.1H181v7.8H166.7Z"/><path d="M190.8,304.5V272.4h15.4a18.7,18.7,0,0,1,7.8,1.5,11.8,11.8,0,0,1,5.1,4.2,11.4,11.4,0,0,1,1.8,6.4,11.2,11.2,0,0,1-1.8,6.4A11,11,0,0,1,214,295a18.7,18.7,0,0,1-7.8,1.4h-9.4l4.8-4.4v12.5Zm10.8-11.3-4.8-4.9h8.8a4.5,4.5,0,0,0,3.3-1,3.8,3.8,0,0,0,1.1-2.8,3.7,3.7,0,0,0-1.1-2.7,4.5,4.5,0,0,0-3.3-1h-8.8l4.8-4.9Zm8.4,11.3-7.9-11.7h11.5l8,11.7Z"/><path d="M227.2,304.5V272.4h15.5a17.9,17.9,0,0,1,7.7,1.5,11.8,11.8,0,0,1,5.1,4.2,11.4,11.4,0,0,1,1.8,6.4,11.2,11.2,0,0,1-1.8,6.4,11,11,0,0,1-5.1,4.1,18,18,0,0,1-7.7,1.4h-9.5L238,292v12.5ZM238,293.2l-4.8-4.9H242a4.5,4.5,0,0,0,3.3-1,3.8,3.8,0,0,0,1.1-2.8,3.7,3.7,0,0,0-1.1-2.7,4.5,4.5,0,0,0-3.3-1h-8.8l4.8-4.9Zm8.4,11.3-7.9-11.7H250l8,11.7Z"/><path d="M259.3,304.5l14-32.1h10.6l14,32.1H286.7l-10.3-26.9h4.2l-10.4,26.9Zm8.3-5.6,2.7-7.8h14.8l2.7,7.8Z"/><path d="M326.2,304.5V290.4l2.5,6.5-14.6-24.5h11.4l9.9,16.8h-6.7l10-16.8h10.4l-14.4,24.5,2.3-6.5v14.1Z"/><path d="M368.8,304.5V272.4h15.5a18.2,18.2,0,0,1,7.7,1.5,11.8,11.8,0,0,1,5.1,4.2,11.4,11.4,0,0,1,1.8,6.4,11.2,11.2,0,0,1-1.8,6.4,11.8,11.8,0,0,1-5.1,4.2,18.2,18.2,0,0,1-7.7,1.5h-9.5l4.8-4.6v12.5Zm10.8-11.3-4.8-4.9h8.8a4.5,4.5,0,0,0,3.3-1,3.8,3.8,0,0,0,1.1-2.8,3.7,3.7,0,0,0-1.1-2.7,4.5,4.5,0,0,0-3.3-1h-8.8l4.8-4.9Z"/><path d="M395,304.5l14.1-32.1h10.6l14,32.1H422.5l-10.3-26.9h4.2L406,304.5Zm8.4-5.6,2.7-7.8h14.8l2.7,7.8Z"/><path d="M444.7,305.2a18.3,18.3,0,0,1-6.8-1.2,12.9,12.9,0,0,1-5-3.5l5.8-6.9a13.9,13.9,0,0,0,2.5,2.4,5,5,0,0,0,2.6.8c2.3,0,3.5-1.4,3.5-4V280.6H436.4v-8.2h21.5v19.7c0,4.4-1.1,7.7-3.4,9.9S449,305.2,444.7,305.2Z"/><path d="M457.3,304.5l14.1-32.1H482l14,32.1H484.8l-10.3-26.9h4.2l-10.4,26.9Zm8.4-5.6,2.7-7.8h14.8l2.7,7.8Z"/><path d="M17.5,337.8H16l6.2-15.3,6.1,15.3H26.7l-1.2-3.1H18.8Zm4.7-11.4-2.8,6.9h5.5Z"/><path d="M35.8,332.9v4.9H34.4v-15H40a4.4,4.4,0,0,1,3.3,1.3,5.1,5.1,0,0,1,1.7,3.2,5.4,5.4,0,0,1-.9,3.5,4.8,4.8,0,0,1-3.1,1.9l3.9,5.1H43.2l-3.8-4.9Zm0-8.7v7.2H40a3.3,3.3,0,0,0,2.5-1,3.6,3.6,0,0,0,1.1-2.6,3.8,3.8,0,0,0-3.6-3.6Z"/><path d="M66.2,330.3a7.6,7.6,0,0,1-.5,2.7,7.4,7.4,0,0,1-1.4,2.3l1.8,2.5H64.4l-1.2-1.5a6.8,6.8,0,0,1-4.7,1.5,7.1,7.1,0,0,1-4.6-1.7,7.2,7.2,0,0,1-2.6-4.2,6.9,6.9,0,0,1,.6-4.9,7.4,7.4,0,0,1,8.5-4,6.8,6.8,0,0,1,4.1,2.7A7.1,7.1,0,0,1,66.2,330.3Zm-4.3,1.8,1.5,2.1a6.1,6.1,0,0,0,1.3-4.3,5.9,5.9,0,0,0-4.6-5.5,7.6,7.6,0,0,0-3,0,6.3,6.3,0,0,0-2.7,1.6,5.6,5.6,0,0,0-1.6,2.5,6.5,6.5,0,0,0-.1,3.1,5.7,5.7,0,0,0,1.3,2.7,5.9,5.9,0,0,0,2.5,1.7,6.3,6.3,0,0,0,3,.4,7.4,7.4,0,0,0,2.9-1.2l-2.3-3.1Z"/><path d="M80.5,333V322.8H82V333a4,4,0,0,1-.7,2.4,4.2,4.2,0,0,1-1.7,1.8,4.5,4.5,0,0,1-2.5.7,5.1,5.1,0,0,1-4.2-2.5,4.8,4.8,0,0,1-.6-2.4V322.8h1.4V333a3.4,3.4,0,0,0,.5,1.7,3,3,0,0,0,1.2,1.3,3.4,3.4,0,0,0,1.7.5,3.7,3.7,0,0,0,1.8-.5,3,3,0,0,0,1.2-1.3A2.5,2.5,0,0,0,80.5,333Z"/><path d="M89.5,337.8H88.1v-15h1.4Z"/><path d="M99.5,337.8V324.2H95.7v-1.4h9.1v1.4H101v13.6Z"/><path d="M120,336.4v1.4h-9.1v-15H120v1.4h-7.6v7.2H119v1.5h-6.6v3.5Z"/><path d="M133.7,336.4a5.4,5.4,0,0,0,3.8-1.4l.9,1.1a6.6,6.6,0,0,1-4.4,1.7,7.3,7.3,0,0,1-4.5-1.2,7.6,7.6,0,0,1-2.9-3.7,6.9,6.9,0,0,1-.1-4.7,6.7,6.7,0,0,1,2.7-3.9,7.2,7.2,0,0,1,4.5-1.5,6.7,6.7,0,0,1,2.4.4,9.4,9.4,0,0,1,2.2,1.2l-.9,1.1a6.2,6.2,0,0,0-3.7-1.3,6,6,0,0,0-2.4.5,6.9,6.9,0,0,0-2,1.3,9.9,9.9,0,0,0-1.3,2,5.9,5.9,0,0,0-.4,2.3,6.1,6.1,0,0,0,.4,2.4,7,7,0,0,0,1.3,1.9,5.3,5.3,0,0,0,2,1.3A4.7,4.7,0,0,0,133.7,336.4Z"/><path d="M148.4,337.8V324.2h-3.8v-1.4h9.1v1.4h-3.8v13.6Z"/><path d="M168.1,333V322.8h1.4V333a4.8,4.8,0,0,1-.6,2.4,3.9,3.9,0,0,1-1.8,1.8,4.5,4.5,0,0,1-4.8,0,3.9,3.9,0,0,1-1.8-1.8,4.8,4.8,0,0,1-.7-2.4V322.8h1.5V333a3.3,3.3,0,0,0,.4,1.7A2.7,2.7,0,0,0,163,336a3.1,3.1,0,0,0,3.4,0,3.3,3.3,0,0,0,1.3-1.3A3.3,3.3,0,0,0,168.1,333Z"/><path d="M177.1,332.9v4.9h-1.5v-15h5.6a4.8,4.8,0,0,1,3.4,1.3,4.9,4.9,0,0,1,1.6,3.2,4.5,4.5,0,0,1-.9,3.5,4.9,4.9,0,0,1-3,1.9l3.9,5.1h-1.8l-3.8-4.9Zm0-8.7v7.2h4.1a3.4,3.4,0,0,0,3.6-3.6,3.3,3.3,0,0,0-1-2.5,3.6,3.6,0,0,0-2.6-1.1Z"/><path d="M193.9,337.8h-1.5l6.2-15.3,6.1,15.3h-1.6l-1.2-3.1h-6.7Zm4.6-11.4-2.7,6.9h5.5Z"/><path d="M234.8,322.8h1.6l-5.2,9.4v5.6h-1.4v-5.4l-5.2-9.6h1.6l4.3,7.9Z"/><path d="M267,332.8a4.3,4.3,0,0,1-.7,2.5,5.5,5.5,0,0,1-1.8,1.9,5.5,5.5,0,0,1-2.6.6h-5.6v-15h5.6a3.2,3.2,0,0,1,1.8.6,2.6,2.6,0,0,1,1.1,1.4,3.2,3.2,0,0,1-.7,3.5,4.6,4.6,0,0,1,2.1,1.8A5,5,0,0,1,267,332.8Zm-9.2-8.6v3.6h4.1a1.4,1.4,0,0,0,1.2-.6,1.7,1.7,0,0,0,0-2.4,1.4,1.4,0,0,0-1.2-.6Zm0,5v7.2h4.1a3.5,3.5,0,0,0,2.6-1,3.6,3.6,0,0,0,0-5.2,3.5,3.5,0,0,0-2.6-1Z"/><path d="M274.5,337.8h-1.4v-15h1.4Z"/><path d="M291.1,337.3a9.3,9.3,0,0,1-2.9.5,7.2,7.2,0,0,1-2.9-.6,6,6,0,0,1-2.4-1.6,6.3,6.3,0,0,1-1.6-2.3,7.7,7.7,0,0,1-.6-3,7.2,7.2,0,0,1,.6-2.9,7.8,7.8,0,0,1,1.6-2.4,7.4,7.4,0,0,1,8.2-1.6,10,10,0,0,1,2.4,1.6,7.8,7.8,0,0,1,1.6,2.4,7.2,7.2,0,0,1,.6,2.9,7.7,7.7,0,0,1-.6,3,7.8,7.8,0,0,1-1.6,2.4A10,10,0,0,1,291.1,337.3Zm-2.9-13.1a5.9,5.9,0,0,0-3.1.9,5.2,5.2,0,0,0-2.2,2.2,6.1,6.1,0,0,0-.8,3,4.7,4.7,0,0,0,.5,2.4,4.3,4.3,0,0,0,1.3,1.9,5,5,0,0,0,1.9,1.3,5.2,5.2,0,0,0,2.4.5,6.1,6.1,0,0,0,3-.8,5.2,5.2,0,0,0,2.2-2.2,5.6,5.6,0,0,0,.9-3.1,5.9,5.9,0,0,0-.5-2.3,5.7,5.7,0,0,0-3.3-3.3A5.9,5.9,0,0,0,288.2,324.2Z"/><path d="M309.3,336.4a5.5,5.5,0,0,0,3.9-1.4l.9,1.1a6.6,6.6,0,0,1-4.4,1.7,7.1,7.1,0,0,1-4.5-1.2,7,7,0,0,1-2.9-3.7,7.6,7.6,0,0,1-.2-4.7,7.7,7.7,0,0,1,2.7-3.9,7.6,7.6,0,0,1,4.5-1.5,6.9,6.9,0,0,1,2.5.4,7.2,7.2,0,0,1,2.1,1.2l-.8,1.1a6.5,6.5,0,0,0-3.8-1.3,5.9,5.9,0,0,0-2.3.5,5.7,5.7,0,0,0-3.3,3.3,5.9,5.9,0,0,0-.5,2.3,6,6,0,0,0,.5,2.4,6,6,0,0,0,3.3,3.2A4.6,4.6,0,0,0,309.3,336.4Z"/><path d="M329.6,337.3a9.3,9.3,0,0,1-2.9.5,7.2,7.2,0,0,1-2.9-.6,6,6,0,0,1-2.4-1.6,6.3,6.3,0,0,1-1.6-2.3,7.7,7.7,0,0,1-.6-3,7.2,7.2,0,0,1,.6-2.9,7.8,7.8,0,0,1,1.6-2.4,7.4,7.4,0,0,1,8.2-1.6A10,10,0,0,1,332,325a7.8,7.8,0,0,1,1.6,2.4,7.2,7.2,0,0,1,.6,2.9,7.7,7.7,0,0,1-.6,3,7.8,7.8,0,0,1-1.6,2.4A10,10,0,0,1,329.6,337.3Zm-2.9-13.1a5.9,5.9,0,0,0-3.1.9,5.2,5.2,0,0,0-2.2,2.2,6.1,6.1,0,0,0-.8,3,4.7,4.7,0,0,0,.5,2.4,4.3,4.3,0,0,0,1.3,1.9,5,5,0,0,0,1.9,1.3,5.2,5.2,0,0,0,2.4.5,6.1,6.1,0,0,0,3-.8,5.2,5.2,0,0,0,2.2-2.2,5.6,5.6,0,0,0,.9-3.1,5.9,5.9,0,0,0-.5-2.3,5.7,5.7,0,0,0-3.3-3.3A5.9,5.9,0,0,0,326.7,324.2Z"/><path d="M341.7,326.7v11.1h-1.4V322.6l9.1,11.3V322.8h1.5v15.1Z"/><path d="M360.5,336.4h0a2.8,2.8,0,0,0,1.8-.6,3.1,3.1,0,0,0,1.1-1.6,3.2,3.2,0,0,0-.2-1.9,2.4,2.4,0,0,0-1.2-1.4l-3.4-1.9a3.6,3.6,0,0,1-1.4-1.6,3.8,3.8,0,0,1-.1-2.1,3.2,3.2,0,0,1,1.2-1.8,2.9,2.9,0,0,1,2-.7h.3a3.7,3.7,0,0,1,1.7.5,2.5,2.5,0,0,1,1.2,1.1l-1.3.8c-.1-.3-.4-.5-.6-.7a1.7,1.7,0,0,0-1-.3h-.3a2.1,2.1,0,0,0-1.1.4,1.7,1.7,0,0,0-.7,1,1.7,1.7,0,0,0,.1,1.2,1.4,1.4,0,0,0,.8.9l3.3,2a4.3,4.3,0,0,1,1.9,2.1,4.4,4.4,0,0,1,.1,2.8,3.6,3.6,0,0,1-1.5,2.3,4.4,4.4,0,0,1-2.7.9h0a4.5,4.5,0,0,1-2-.4,3.7,3.7,0,0,1-1.5-1.3l1.1-.8a3.9,3.9,0,0,0,1,.8A3.5,3.5,0,0,0,360.5,336.4Z"/><path d="M374.9,337.8V324.2H371v-1.4h9.2v1.4h-3.9v13.6Z"/><path d="M387.7,332.9v4.9h-1.4v-15h5.6a4.6,4.6,0,0,1,3.3,1.3,5.1,5.1,0,0,1,1.7,3.2,5,5,0,0,1-1,3.5,4.4,4.4,0,0,1-3,1.9l3.9,5.1H395l-3.8-4.9Zm0-8.7v7.2h4.2a3.3,3.3,0,0,0,2.5-1,3.6,3.6,0,0,0,1.1-2.6,3.8,3.8,0,0,0-3.6-3.6Z"/><path d="M411.3,333V322.8h1.4V333a4.8,4.8,0,0,1-.6,2.4,5.2,5.2,0,0,1-1.8,1.8,4.4,4.4,0,0,1-2.4.7,4.5,4.5,0,0,1-2.5-.7,5.2,5.2,0,0,1-1.8-1.8,4.8,4.8,0,0,1-.6-2.4V322.8h1.4V333a3.4,3.4,0,0,0,.5,1.7,3,3,0,0,0,1.2,1.3,3.7,3.7,0,0,0,1.8.5,3.7,3.7,0,0,0,1.7-.5,3,3,0,0,0,1.2-1.3A3.4,3.4,0,0,0,411.3,333Z"/><path d="M426.3,336.4a5.5,5.5,0,0,0,3.9-1.4l.9,1.1a6.6,6.6,0,0,1-4.4,1.7,7.1,7.1,0,0,1-4.5-1.2,7,7,0,0,1-2.9-3.7,7.6,7.6,0,0,1-.2-4.7,7.7,7.7,0,0,1,2.7-3.9,7.6,7.6,0,0,1,4.5-1.5,6.9,6.9,0,0,1,2.5.4,9.4,9.4,0,0,1,2.2,1.2l-.9,1.1a6.5,6.5,0,0,0-3.8-1.3,5.9,5.9,0,0,0-2.3.5,5.7,5.7,0,0,0-3.3,3.3,5.9,5.9,0,0,0-.5,2.3,6,6,0,0,0,.5,2.4,6,6,0,0,0,3.3,3.2A4.6,4.6,0,0,0,426.3,336.4Z"/><path d="M443.7,336.4a5.9,5.9,0,0,0,3.9-1.4l.9,1.1a6.7,6.7,0,0,1-4.4,1.7,7.4,7.4,0,0,1-4.6-1.2,7.4,7.4,0,0,1-3-8.4,7.7,7.7,0,0,1,2.7-3.9,7.2,7.2,0,0,1,4.5-1.5,6.7,6.7,0,0,1,2.4.4,9.4,9.4,0,0,1,2.2,1.2l-.9,1.1a6.2,6.2,0,0,0-3.7-1.3,6.9,6.9,0,0,0-2.4.5,6.4,6.4,0,0,0-1.9,1.3,5.3,5.3,0,0,0-1.3,2,5.9,5.9,0,0,0-.5,2.3,6,6,0,0,0,.5,2.4,4.3,4.3,0,0,0,1.3,1.9,5,5,0,0,0,1.9,1.3A5.2,5.2,0,0,0,443.7,336.4Z"/><path d="M456,337.8h-1.4v-15H456Z"/><path d="M469.7,322.8a7.5,7.5,0,0,1,2.9.6A7.8,7.8,0,0,1,475,325a8.4,8.4,0,0,1,1.6,2.4,7.3,7.3,0,0,1,0,5.8,10,10,0,0,1-1.6,2.4,7.8,7.8,0,0,1-2.4,1.6,7.2,7.2,0,0,1-2.9.6,7.7,7.7,0,0,1-3-.6,7.8,7.8,0,0,1-2.4-1.6,10,10,0,0,1-1.6-2.4,7.3,7.3,0,0,1,0-5.8,8.4,8.4,0,0,1,1.6-2.4,7.8,7.8,0,0,1,2.4-1.6A7.7,7.7,0,0,1,469.7,322.8Zm-2.4,13.1a6,6,0,0,0,2.4.5,5.9,5.9,0,0,0,2.3-.5,6.9,6.9,0,0,0,2-1.3,9.1,9.1,0,0,0,1.3-1.9,7.4,7.4,0,0,0,0-4.8A9.1,9.1,0,0,0,474,326a5.3,5.3,0,0,0-2-1.3,5.9,5.9,0,0,0-2.3-.5,6,6,0,0,0-2.4.5,4.3,4.3,0,0,0-1.9,1.3,5,5,0,0,0-1.3,1.9,6,6,0,0,0,0,4.8,5,5,0,0,0,1.3,1.9A5.3,5.3,0,0,0,467.3,335.9Zm4-16.6-2.6,2.3-.7-.8,2.6-2.2Z"/><path d="M484.7,326.7v11.1h-1.4V322.6l9.1,11.3V322.8h1.4v15.1Z"/><path d="M231,194.5c1.2-13.7,1.8-27.6,2.6-41.3s.3-25.2,5.8-36.7c1.2-3.3,2.6-6.6,2.7-10.1,0-.3,0-.9.2-1,2-.9,5.3,6.6,6.3,8.1a29.8,29.8,0,0,1,2,7.8c1.5,8.7.1,17.4.4,26.1,1.2,10.3-.1,20.6-.2,30.9-.6,8.3.2,16.7-1.6,24.7a2,2,0,0,1-2.4,1.7c-2.4,0-4.6,2.2-6.9.7C233.4,202.2,231.1,202.6,231,194.5Z"/><path d="M296.6,194.8l-4.7-.6c-4.2-.6-5.7-6.3-6.4-9.9-1.7-10.9-6.5-21-7.8-32-1.5-12.7-5.5-24.7-8.4-37-.5-2.8,0-5.9-.5-8.7a9.7,9.7,0,0,1,0-3.8c.2-1.7-.5-3.6.2-5.3,8.9,2.6,12.2,12.6,15.1,20.5,5.6,12.2,8,25.6,13,37.9s9.5,21.9,9.4,33.7a2.2,2.2,0,0,1-1,1.3C302.9,192.6,299.6,194.5,296.6,194.8Z"/><path d="M217.3,90.1c2.1,3.4,2.1,7.2,2.8,11a10,10,0,0,1-1.3,6.5c-1.4,2.3-1.6,5.4-2.8,7.8a55.7,55.7,0,0,0-3.6,9.1c-5,16.2-10,32.2-15.7,48.1-.9,2.1-1.4,4.8-4,5.6s-3.7,4-6,1.8c-6.4-4.7-11.8-11.9-8.2-20.1s7.4-15.1,11.3-22.5c6.9-13.4,13.9-26.7,22.5-39C214.2,95.7,215.2,92.7,217.3,90.1Z"/><path d="M137.8,121.3c-.5,2.6,0,5.4-.8,8.1-.4,1.2.6,2.8.2,4.2-1.4,5.8.8,4.8,1,9.3,0,1.5.6,3.1-.6,4.4.8,1.3.4,2.6.3,3.9s.9,3,.7,4.4.1,4.7,2.6,5.5,2.1,3.2,2.8,4.8c1.5,3.1,1.1,6.7,3,9.6a238.5,238.5,0,0,0,13.8,22c-4.1-2.5-3.9-4.6-6.8-7.4l-.5,1.5a72.9,72.9,0,0,1-8.4-10c-.7-2.8-2.9-4.7-4.4-7s-3.2-7.2-4.1-11.1-1.8-6.7-1.8-10.2-1.9-7.6-1.4-11.6-.6-8.5.1-12.8,1.1-6.4,1.6-9.6a2.8,2.8,0,0,1,.8-2C137.5,118,136.6,119.8,137.8,121.3Z"/><path d="M240.9,56.5c.1-2.3,2.6-3,4.2-4.3,5.1-2.8,10.1,4.3,8.6,9.5s-7.7,5.1-9.5,1C243.1,60.6,241.6,58.8,240.9,56.5Z"/><path d="M230.4,71.1c-.9,10.6-13.1,11.4-11.7-.7.5-3.6,4.8-3.4,7.6-4S230.5,68.7,230.4,71.1Z"/><path d="M268.1,82.2c-2.5-.3-4.5-2-5.9-4.5.2-4.5,5.6-6.9,9.7-5.1s3.6,1,2.4,4.9A6.2,6.2,0,0,1,268.1,82.2Z"/><path d="M145.7,85.4c-.6.8-1.8,1.8-2,2.8,1.3,1.8,0,3.2-.9,4.4a9.6,9.6,0,0,0-1.6,4.3c-2.1,2.2-1.6,5.2-1.9,7.8a79.6,79.6,0,0,1-2.4,11.8h-.6c-.8-1.6.1-3.4.2-5a26.2,26.2,0,0,1,2-7.9,36.9,36.9,0,0,1,1-6.4c-.3-1.6.6-3.3-.2-5s2.5-3.9,3.5-5.8.8.9,2.5-1.4Z"/><path d="M163.3,57.9c-1.4,1.6-2.9,3-3.8,5s-2.1,2-2.8,3.2a22.2,22.2,0,0,1-4.3,5.4c-2,2.7-2.8,6.4-4.7,9.3s-2.2-.2-1.6-1.3a11.1,11.1,0,0,0,2.2-4.8,19.4,19.4,0,0,1,6.3-7.6c1.3-1.2-1.9-1.5-.2-2.5s2.5-2.9,4.6-3.7,2.7-2.3,4.2-3.2Z"/><path d="M170.6,211.1c.8.3,3.9,3.2,4.2,1.9s-.5-.9-.8-1-2.5-1.8-3.6-2.9c3.4,1.6,6.5,4.3,9.7,6.4s6.5,4.8,10.4,6.1v.4c-1.8.3-3.2-1.9-4.9-2.4s-3.7-2.6-5.8-3.6-1.8,1.5-3.9.4-3.1-3.2-5.1-4.2c-.2-.1-.3-.5-.4-.8Zm5.7,4.4-.2.3c.2.2.4.3.5,0S176.4,215.6,176.3,215.5Z"/><path d="M182.1,41.2c-1.4,2.2-3.6,3.5-5.5,5.1l-.4-.3c.2-.6.1-1.5.6-1.8S179.7,41.1,182.1,41.2Z"/><path d="M172.7,49a19.5,19.5,0,0,1-5.6,4.7,1,1,0,0,1,.1-1.7c.8-.8,1.5-2.3,2.6-2.5s1.9-.4,2.9-.4Zm-3.9,2.9h.1v-.2h-.1Z"/><path d="M168.4,209a5.5,5.5,0,0,1-2.9-3.1C167.5,206.5,171,206.6,168.4,209Z"/><path d="M205.3,232.7l4.5,2.5v.2C208.7,235.1,203.4,234.5,205.3,232.7Z"/><path d="M168.6,205.1c-1.7.7-4.7-1.8-2.7-2.4A27.5,27.5,0,0,1,168.6,205.1Z"/><path d="M197.8,226.4c-2.5,1-4.1-2.4-1.9-1.9Z"/><path d="M213.8,29.6l2.5-.8c-.6,1.1-1.2,1.3-2.5,1.2Z"/><path d="M180.8,219.8l1.8,1.2-.3.4-1.8-1.2Z"/><path d="M164.3,201.6l-1.3-.8.3-.4,1.3.8Z"/><path d="M165.8,55.6,164.3,57l-.2-.2,1.5-1.4Z"/><path d="M227.6,19.5l1,.2v.2h-1.1Z"/><path d="M187.8,224.8l1.2.3-.2.5-1-.8Z"/><path d="M251.5,24.9l-.2-.2c.2-.2.4-.3.5.1Z"/><path d="M183.2,221.7l.7.3v.3l-.5-.6Z"/><polygon points="202.8 232.5 202.7 232.6 202.7 232.5 202.8 232.5"/><path d="M173.9,48.1c-.1.1-.2.2-.2.3S173.9,48.2,173.9,48.1Z"/><path d="M174.2,47.9c-.1,0-.3.1-.3.2Z"/><path d="M233.8,236.5h0Z"/><path d="M176.3,215.5c.1.1.3.2.3.3s-.3.2-.5,0Z"/><path d="M168.8,51.9a.3.3,0,0,1,.1-.2h0v.2Z"/><path d="M304.2,224.8c-1,.5-2,1.2-3,1.6s.8,2.6-1.5,3.5c-4.2,1.9-8.3,3.9-12.6,5.6a108.3,108.3,0,0,1-25.8,5.1c-5.7-.1-11.3,1.4-16.8,1-1.2,0-2.4-.7-3.6-.9s-3,.1-4.5-.2-.9-.2-1.2,0a5,5,0,0,1-3.6.1c-1.3-.3-2.1.1-2.9-.2s-2.9-.6-4.4-.6a17.1,17.1,0,0,1-4.5-.9c-2.6-1-5.6-1.4-7.9-2.9l.2-.5a68,68,0,0,0,7.5,1.8,27.6,27.6,0,0,1,6.5,1c4.6,0,9.3.9,14,1.2,1.1.2,1.9.9,3.2.4s4.8.5,7.2-.2,6.2.7,8.2-1.7c.4-.5,1.2-.5,1.9-1.1-3.4-.5-6.9.6-10.4.6s-7.6-1.6-9.3.1-4.8-.4-7-.4-8.1,1.2-6.5-2.3c1.9-.4,4.2.8,6.3.9.4.1.9-.3,1.3-.6s-.6-1.3-1-1.4,1.7-1,3.1.7l-1.2.7c3.4,1.5,8.4.3,12.1.1a7.3,7.3,0,0,0,4.1-1.2l.9-.3a86.5,86.5,0,0,0,12.5-.7c1.8-.7,3.4-1.6,5.1-2.1,3.7-1.1,7.6-1.3,11.1-2.8,1.1-.6,2.2-1.3,3.6-.8a.8.8,0,0,0,.8-.1c11.6-5.5,23.5-11.7,31.8-21.9a126.2,126.2,0,0,0,21.3-38.7c3.7-11.3,4.9-23.5,4.8-35.4.7-7.8,0-15.6-1-23.4a61.6,61.6,0,0,0-3.4-14.7c-1.3-3.7-2.8-7.2-4-10.8-2.4-6.4-6.5-12-9.8-18a8.5,8.5,0,0,1-1.7-3.9,4.5,4.5,0,0,0-1.1-1.7,52.5,52.5,0,0,0-10.3-9.1c-8.5-10.4-22.1-14.9-34-20.4,1-1.2,1-1.4-.4-1.8s-1.8-.8-3.1-.6l.5,1.7-2.9-1,.8-1.1c-1.6-.7-3.7-1.7-5.3-1a5.4,5.4,0,0,0,2,1v.4h-1c-2.5-1.1-5.3-.7-7.8-1.4s-5.5-.4-8.4-.5v-.6c1.4-.3,8.5-.2,8.7-1.4s2.8-.7,4.1-1.2c-4.4-3.4-9.2,0-14.1-.8a1.2,1.2,0,0,1-1-.2c-2.3-3-6.3-.3-7.1-2.4a1.6,1.6,0,0,1,1.4-2.4c5.2.2,10.4-.5,15.3,1.3.3.1.6.4.9.3,2.8-.7,5.4,1.2,8.2,1s4,1,6.1,1.3c12.3,4.1,24.7,8.9,35.2,16.7A94.4,94.4,0,0,1,335.3,64c3.9,7.9,7.6,15.9,11,24,2.3,5.6,3,11.9,5.9,17.2,1.3,14.1,1.6,28.7-.6,42.8-.8,10.8-4.6,20.9-7.6,31.2-.6,1.7-.7,3.5-2.4,4.8s-1.6,2.4-2.4,3.8c-3.7,6.2-7.5,12.5-12.5,17.8A78.4,78.4,0,0,1,314.1,220c-3.2,1.7-6.4,3.9-9.9,4.8a23.9,23.9,0,0,1,1.3-2.1A6.2,6.2,0,0,0,309,220c3.5-1,6.2-3.5,8.5-6.1s5.4-5.4,6.6-9h-.3c-5.1,4.9-9,11-14.8,15.2l-3.5,2.7C303.8,223.1,303.4,223.8,304.2,224.8Zm46.5-92c-.6,2.2-1.5,4.3-.4,6.6,1-2.6.3-5.1.5-7.7h-.4Zm-.8,7.2c-1.6,3.1-.4,6.1-1.7,9.2-.3.6,0,1.3-.2,1.9-.9,4.5-2.5,9-2.4,13.7C348.1,163.6,351.7,142.8,349.9,140ZM291.2,28.9c.6.7,20.2,11,21,10.9C310.7,37.1,294.2,28.4,291.2,28.9Zm31.3,22.4-.3.4c.7,1,2.9,4.3,4.3,3.8S323.7,52.2,322.5,51.3Zm28.3,57.2h-.4v1.2h.4Zm-88-84.7v.4l1,.2v-.5Zm88,87.5h-.4v.7h.3Zm-5-18.5h-.3l.3.5h.2ZM278.6,235.4c.6-.5.3-1-.2-.5S278.5,235.2,278.6,235.4Zm8.4-2.7c-.1-.3-.2-.2-.4-.1s.2.2.4.1Zm-53.2,3.8h-.2c.1.2.1.2.2.1Z"/></svg>