<svg xmlns="http://www.w3.org/2000/svg" width="1024" height="456" viewBox="0 0 1024 456"><path fill="#bfa32d" d="M355.8 455.2c-7.2-2-12.3-7.1-15.2-15.5-.8-2.3-.8-4.2-.8-36V370l1-3.3a22.7 22.7 0 0 1 10.4-13 32.4 32.4 0 0 1 19.2-2.2 21 21 0 0 1 14.9 11.3c2 4 3 8.8 3 15.4v5.1h-15.9v-4.1c0-7.6-2-11.5-6.5-12.4-4.1-.9-7.5.6-9.4 4l-1 2-.1 29.7c0 26.4 0 30 .6 31.9 1.4 4 4 6.2 7.8 6.2 5.8 0 8.6-4.2 8.6-12.6v-4.5h16l-.3 6.6c-.2 5.5-.4 7.3-1.4 10.3a20.3 20.3 0 0 1-15.4 14.9 46 46 0 0 1-15.5 0zM417.1 455.3c-4-1.2-8-3.4-10.4-5.9-2.9-3-4-4.6-5.4-8.3l-1.1-3-.2-33c0-27.8 0-33.5.6-36.1 1.7-8.5 6.8-14 15.4-16.9a27 27 0 0 1 9.9-1c5.9 0 7.1.1 9.9 1a22 22 0 0 1 14.7 14c1 2.6 1 2.6 1.2 35.6.1 19.8 0 34-.3 35.4a21.4 21.4 0 0 1-14.7 17.4c-2.8 1-4 1.2-10.1 1.3-5.3.1-7.7 0-9.5-.5zm14-15.8a8 8 0 0 0 3.3-3.2l1.4-2.1.1-30.3.1-30.2-1.1-2.3c-1.4-3-3.3-4.2-7.1-4.8-5-1-9.3 1-11.2 5-.8 2-.9 3-.9 31.6 0 21 .2 30 .5 31.1a9.4 9.4 0 0 0 4.7 5.5 14 14 0 0 0 10.2-.3zM674.6 455c-1.4-.4-3.6-1.3-4.9-1.9a28.5 28.5 0 0 1-8.2-7.3c0-.3.8-1.3 2-2.3l5.3-5 3.4-3.4 1.8 1.8c2.6 2.6 4.7 3.5 8.3 3.5 2.4 0 3.3-.2 4.2-1a8 8 0 0 0 3.4-5.5c.3-1.5.4-17.4.4-42.3v-39.8h15.4l-.1 44c-.2 44-.2 44.1-1.2 46.5a20 20 0 0 1-14.4 13c-3.7 1-12.2.8-15.4-.2zM464 454.9c-.2-.1-.2-23.4-.1-51.7v-51.4h12.9l1.6 4.4a3429.7 3429.7 0 0 0 14.2 40.2c6.7 19 7.6 21.4 8 21.9.2.2.4-14.7.4-33v-33.5h14.4V455l-6.6-.2h-6.6l-2.7-7.5-8-21.9a2064.3 2064.3 0 0 1-12.4-33.4c-.6-1.2-.7 2.4-.7 30.8V455h-7.1l-7.4-.1zM547.8 403.4v-51.6H562c18.4 0 22 .6 27.6 4.3 3.2 2.2 6.6 6.8 7.7 10.8 1 3.4 1.4 24 .6 29.7a21 21 0 0 1-8.9 14.8c-4.3 2.7-6.4 3.2-16.4 3.5l-9.2.2V435l-.2 19.8-7.7.1-7.7.1zm30.8-4.4c.8-.5 2-2 2.6-3 1-2 1.1-2.5 1.3-10.6.2-10-.2-13.2-2.1-15.6-2-2.6-3.2-2.9-10.2-3-4.9-.2-6.3 0-6.6.4-.5.7-.6 32-.1 32.5.1.2 3.2.3 6.9.3 6.2 0 6.7 0 8.2-1zM598.8 454.6c0-.3.5-2.7 1.2-5.3l2-8.5 1.7-7.5a3681.4 3681.4 0 0 0 8.9-37.6 7994 7994 0 0 0 10.4-43.6c.4-.6 12.3-.4 12.5.3l1.1 4.6a2905.2 2905.2 0 0 0 10.9 46.4l3.6 15.3 7 30 1.4 5.6c.2.7-.4.7-7.9.7h-8l-1.7-8.6-2-9.8-.2-1-10.6.1-10.7.2-1.8 9.5-1.8 9.6h-8c-5.1 0-8-.1-8-.4zm37.9-34.1c0-.6-2.8-15.2-4.8-25.2l-1.5-8.1a35 35 0 0 0-1.3-5.3c-.3-.3-.5.5-.7 1.5a2501 2501 0 0 1-6.9 36.4l-.2 1.4h7.7c6.6 0 7.7 0 7.7-.7zM709.7 454.6l3.2-14 1.6-6.5 2.4-10.6 2.8-11.5 4.7-20 4.8-20.4 2.2-9.2 1.8-8 .6-2.7 6.3.2 6.3.1 1.6 7.2 4.1 17.4a3859 3859 0 0 1 3.2 13.7l8 33.9c4 16.6 7 30.3 7 30.5-.1.2-3.7.3-8 .3h-7.9l-.4-2.3-2.7-13.9c-.5-3.4.1-3.2-11.5-3h-10.4l-1.7 8.6c-1 4.8-1.7 9-1.7 9.6 0 1 0 1-8.2 1-4.6 0-8-.1-8-.4zm37.9-34.2a7443.8 7443.8 0 0 0-6.1-32.3c-.9-4.5-1.4-6.4-1.6-5.8-.4.8-1.2 4.8-4.9 24.5a1139.8 1139.8 0 0 1-2.7 14c0 .2 2.5.4 7.6.4 7.2 0 7.7 0 7.7-.8zM0 199.9v-120l9.3-5.4 15.3-9L37.2 58l11-6.5L62 43.4a3638 3638 0 0 0 47.8-28.2l20.9-12.4a54 54 0 0 1 5-2.7 2142.6 2142.6 0 0 0 25 14.7c3.8 2.1 11.7 6.8 17.6 10.3l39 23L239 60.9l27.3 16 4.6 2.8v232.6l-7.3.2H256v-112l-.2-112.2-3.2-1.9-12.1-7.2-21.7-12.7-27.3-16.1c-44.9-26.6-55.4-32.7-55.9-32.7l-5.7 3a5192 5192 0 0 0-54.5 32.1L58 63.2c-26.8 15.7-42.4 25-42.7 25.4-.4.6-.5 215 0 216 .2.6 4.6.7 45.6.7h45.4l7-4.1 13.6-7.9 1.3-.6v-35.1l-14.2-8.2-14.3-8.2v-17.5h14.9v4c0 4.1.3 5.5 1 5.5.2 0 1.7.8 3.3 1.8l3.2 1.8 3.1 1.8 3 1.8V228l-2-1.1a1497 1497 0 0 0-25.5-14.7c-1-.4-1-.8-1-9.3v-9h14.9v9l6.1 3.5 6.4 3.8c.8 1.4 1-.3 1-6.7v-7.2l-14.1-8.2-14.3-8.2v-17.5h15.2l-.2 3.2c-.2 3.5.2 6.3.8 6.3l6.5 3.5 6.2 3.6v-27.9l7.4.1 7.5.2V165c0 9.8 0 13.6.4 13.6.3 0 2.4-1 4.6-2.4l6.2-3.6 2-1 .2-4.6.1-4.6h14.8v8.9l-.2 8.9-5 2.9a1652.4 1652.4 0 0 1-22.4 13c-.7.6-.8 1.6-.8 7.7 0 3.7.1 6.8.3 6.8l6.6-3.7 6.4-3.8.2-4.6.1-4.5h7.5c4.2.1 7.5.3 7.5.6-.1.1-.2 4.1-.2 8.8 0 7.9 0 8.6-.8 9a2308.7 2308.7 0 0 0-22.2 12.7l-5.1 3-.2 6c0 4 0 5.9.4 5.9.3 0 3.3-1.7 6.8-3.7l6.3-3.7v-8.9h7.4c4 0 7.4.2 7.5.4v8.9l-.3 8.5-11.5 6.6c-6.3 3.7-12.7 7.4-14 8.3l-2.7 1.5v43.2l-6 3.6-15.7 9.3-9.7 5.8H0ZM426.7 184.6l-22.2-.1V81.2h45v15.4h-29.8l.2 14.5.1 14.6h13l13 .2-.1 7.5-.2 7.4h-26l.2 14.3.1 14.3h29.5v7.5c0 4.2 0 7.6-.3 7.7h-22.5zM339.4 184.2v-51.6l.1-51.4h14c16.4 0 20.7.6 26.6 3.6a21 21 0 0 1 10 14c.6 3.3.5 21.5-.1 24.5a21.2 21.2 0 0 1-8.9 13.3c-1.4 1-2.6 1.7-2.7 1.7l7.5 23c4.1 12.5 7.5 22.9 7.3 23 0 .1-3.9.2-8.4.2-6.3 0-8.4-.1-8.5-.5l-11-36.7c-.8-3-1.7-5.7-2-6-.3-.4-1.8-.5-4.4-.5h-4v43.7h-7.7c-4.2 0-7.7-.1-7.8-.3zm30.7-59.2c4-2 4.6-3.9 4.6-13.4 0-4.2-.2-8.4-.5-9.4s-1.3-2.5-2.2-3.4c-2-2-4.6-2.7-11.7-2.7h-5.4V126h6.7c5.8 0 7-.2 8.5-.9zM458.6 132.8V81.2l16.1.2c14.7.2 16.3.2 19 1.1 7.2 2.3 11.7 7 13.3 14.1 1 4.3 1 68.8 0 72.8-2 7.8-7.8 13.1-15.7 14.6-1.6.3-8.8.5-17.7.5h-15zm30 36 2-2 1.1-1.4.1-32 .1-32-1-1.7c-2.1-3.1-2.8-3.4-10.2-3.4H474L474 133l-.1 36.7 6.9-.2c4.8 0 7.1-.3 7.8-.7zM540.6 132.9V81.2H555c16.1 0 19.6.4 24.3 2.8 1.6.8 3.8 2.3 4.8 3.3a22 22 0 0 1 5.2 10.1c.3 1.5.5 15.4.5 35.9 0 36.3 0 35.9-2.5 41a19.9 19.9 0 0 1-14 9.7c-1.6.3-8.7.5-17.7.5h-15zm30.4 35.6c.7-.4 1.6-1.6 2.1-2.5.9-1.7.9-3 .9-33 0-33.4 0-32.8-2.3-35-1.6-1.4-4.1-1.9-10-1.9-4.3 0-5.2.2-5.5.7-.1.4-.2 17-.2 36.8v36.1l6.9-.2c5.8 0 7-.2 8-1zM602 132.9V81.2h45v15.4h-14.7l-14.8.2-.1 13.5.1 14.6.2 1H643.4V141l-12.4-.1c-9-.1-12.6 0-13 .4-.6.4-.7 2.9-.7 13.7 0 7.3.1 13.5.3 13.9.2.6 2 .7 14.8.7H647v14.9h-45z M99.2 122.3V93.4h16.2v57.7H99.2zM156 122.3V93.4h16.2v57.7H156zM128 115.5v-22h15.4v44.1H128z"/><path fill="var(--title,#2f2f2f)" d="M356.2 319a22 22 0 0 1-16-17.5c-1-4.6-1-63.9 0-68.5a22.4 22.4 0 0 1 23.7-18.3c7.3 0 13 2.2 17.3 6.5 4.8 4.8 6.5 9.8 6.9 19.6l.3 6.4h-15.9l-.1-5c-.2-4.3-.4-5.5-1.3-7.3a7.5 7.5 0 0 0-7.1-4.6c-4.1 0-7 2.3-8.2 6.5-.3 1-.5 12.6-.5 30.7 0 32.7 0 32 3.2 34.9a8 8 0 0 0 6.8 1.9c2.2-.3 3.8-1.4 5.2-3.5 1.5-2.1 2-4.2 2-9v-4.5h15.9l-.3 6.5c-.1 3.6-.5 7.5-1 9a21.3 21.3 0 0 1-15.8 16.3c-3.4.8-11.7.8-15 0zM417.7 319a22 22 0 0 1-16-13.3l-1.5-3.7-.2-33c0-36 0-36.6 2.5-42 .7-1.5 2.4-3.7 4-5.3 5.1-5.1 11.9-7.4 21.2-6.9 5.7.4 8.3 1 12.2 3 5 2.5 8.3 6.1 10.5 11.6l1.2 3.1.1 33.3c.1 35.7.1 36.1-2.2 41.2-3 6.4-9 11-16.5 12.3-3.5.6-12 .5-15.3-.2zm13.2-15.5c2.2-1 3.8-2.9 4.6-5.3.4-1.1.5-10.2.5-31.2v-29.6l-1.1-2.3c-1.8-3.5-4.2-4.8-9-4.8-4 0-6.6 1-8.2 3.3-2 2.6-2 3-2 34 0 28.2 0 30 .9 31.7.8 1.9 3 3.8 5 4.6 2.1.9 7 .6 9.3-.4zM543.3 318.9a21.4 21.4 0 0 1-15.5-15.6c-.4-1.7-.7-4.6-.7-8 0-5 0-5.2 1-5.5l7.7-.2h6.5l.2 4.4c.2 5.3 1 7.3 3.9 9 5 3.3 12.4 1.7 14.6-3.3.6-1.5.8-3 .8-8.6l-.2-8.3c-.2-.8-1.3-2.4-2.3-3.6-1.7-1.9-3.4-3-9.8-6.1-11.8-6-15.4-8.6-18.6-13.5-3-4.8-3.5-6.8-3.7-16.3-.2-9.6.2-12.1 2.6-17.1 3.4-7.1 11.8-11.4 22-11.5 9.9 0 17 3.3 21.5 10a35 35 0 0 1 3.9 17.4v2.8h-2.4l-8 .3-5.4.3v-4c0-6.3-1.5-9.4-5.2-10.8-3-1.2-7.7-.8-10 .8-3 2-3.5 3.6-3.5 11 0 6 0 6.3 1.2 8.4 1.7 2.9 3.7 4.2 13.1 9 4.4 2.2 9.2 4.8 10.6 5.7 4.3 2.9 7 6.4 8.7 11.4 1 2.7 1 3.6 1 13.5 0 9 0 11-.7 13.3a20.6 20.6 0 0 1-14 14.7 46.5 46.5 0 0 1-19.3.4zM719.3 319.1c-6-1.5-11.2-5.6-13.7-10.7-2.6-5.8-2.6-5.2-2.6-51v-41.8h15.3v40.5c0 44.3 0 43.7 2.6 46.2 1.6 1.6 3.2 2.1 6 2.1 4 0 7-2 8-5.6.3-1.2.5-14.6.5-42.5v-40.7h15.8v42.5c-.3 46.7-.1 44.4-3 50.4a21.7 21.7 0 0 1-14.5 10.8c-3.1.6-11.4.6-14.4-.2zM779.2 319a22 22 0 0 1-14-11.5c-2.7-5.8-2.8-6.2-2.6-41.8l.1-32.3 1.2-3.2c3.7-10.2 11.5-15.5 23-15.5 7.3 0 12.9 2.1 17.3 6.5 4.8 4.8 6.5 9.7 6.8 19.6l.3 6.4h-15.8l-.2-5.4c-.2-5-.3-5.5-1.5-7.5-1.7-2.9-3.7-4-7-4-4 0-7 2.3-8 6.5-.4 1-.5 12.6-.5 30.7 0 32 0 31.8 2.7 34.6a8 8 0 0 0 6.8 2.2 7 7 0 0 0 5.7-3.5c1.4-2.1 1.9-4.2 1.9-9v-4.5h16l-.4 6.5c-.1 3.6-.5 7.5-1 9a21.5 21.5 0 0 1-15.7 16.3c-3.5.8-11.8.8-15.1 0zM838.7 319a22.2 22.2 0 0 1-16-17.5c-1-4.5-1-63.9 0-68.4 1-4.9 3-8.6 6.1-11.8a23.5 23.5 0 0 1 17.8-6.6c7.2 0 12.8 2.1 17 6.4 4.9 5 6.6 9.8 7 19.7l.2 6.4H855l-.2-5.4c-.2-5-.2-5.5-1.5-7.5-1.7-2.9-3.7-4-7-4-3.2 0-5.1 1-7 4l-1.3 2.2-.1 30c-.2 33-.2 32.7 2.6 35.6a8 8 0 0 0 6.8 2.2 7 7 0 0 0 5.7-3.5c1.5-2.1 2-4.2 2-9v-4.5h15.8l-.2 6.5c-.2 3.6-.6 7.5-1 9a21.6 21.6 0 0 1-15.8 16.3c-3.4.8-11.7.8-15.1 0zM925.4 319a22.1 22.1 0 0 1-16.5-14.4c-1-2.6-1-2.7-1.1-35.9-.2-36.2-.2-36.2 2.4-41.7 2.5-5.2 8.5-9.8 15-11.4 3.8-1 14-.8 17.4.2 8 2.3 12.6 6.4 15.5 13.7l1.2 3 .1 33c.2 35 .2 35.7-2 41.1-1 2.3-2 3.7-4.4 6.2a20.3 20.3 0 0 1-11.5 6.3c-4 .8-12.3.8-16.1 0zm13.2-15.5a9 9 0 0 0 4.6-5.3c.4-1.2.5-9.8.5-31 0-29 0-29.6-1-31.8-2.7-6.5-13.5-7.3-17.8-1.2l-1.2 1.8-.2 30.5c0 27.1 0 30.7.6 32.4.8 2 2.7 4 5 5 2.1.9 7.1.7 9.5-.4zM464 267.2v-51.6l6.4.1 6.4.1 5.6 15.8a4645.2 4645.2 0 0 0 16.9 47.6l1.4 3.8.2-33.7v-33.7h14.5V319l-6.6-.1-6.6-.2-1.2-3.6-6.6-17.8-12-32.6c-4.4-12-3.9-14.5-4 22.2v32H464zM599.7 274.7v-44.2h-17.6v-14.9h51v14.9h-17.6v88.4h-15.8zM639 267.2v-51.7l15.6.2c17.2.3 18.1.4 24 3.2 5.5 2.6 9.6 8 10.8 14.6.4 1.8.5 6.2.4 13.5-.2 9.8-.3 11-1.3 13.7a23 23 0 0 1-10.3 11.7c-.4.2 1 5 6.9 22.9l7.5 23c0 .4-2.4.6-8.4.6H676l-.9-3.3a2273 2273 0 0 1-10-33l-2-7.2-4.4-.2-4.3-.1v43.8h-15.4zm29.7-7.4a8.4 8.4 0 0 0 4.9-5c.3-1 .5-4.9.5-9.5 0-8.9-.5-10.6-3.2-12.6-2.4-1.8-4.2-2.2-10.6-2.2h-6V260.2h6.5c3.6 0 7-.2 8-.4zM880.6 267.2v-51.6h15.8V319h-15.8zM972.6 267.2v-51.6l6.4.1 6.4.1 3.4 9.7 10.6 29.8 8.5 23.9 1.4 3.8.2-33.7v-33.7h14.5V319l-6.6-.1-6.6-.2-.8-2.2a21077 21077 0 0 0-22.2-60.2c-.6-1.5-.7 1-.7 30.6v32h-14.5zM929.9 204.8a76 76 0 0 1-4.6-4.7c0-.2 5.3-6 12.4-13.2l5-5.2 5.8 5.6 5.7 5.6-9.5 8.2c-5.2 4.5-9.7 8.2-9.9 8.2-.2 0-2.4-2-4.9-4.5z"/></svg>