<svg xmlns="http://www.w3.org/2000/svg" width="1024" height="1024" viewBox="0 0 1024 1024"><circle cx="512" cy="512" r="512"/><path fill="#fff" d="m754 893-12 6c-9 4 3 11-6 14l-50 23c-33 10-67 18-102 20-23-1-45 5-67 4-5 0-9-3-14-4l-18-1h-5c-5 3-9 2-14 1-5-2-9 0-12-1-5-4-11-2-17-2s-12-2-18-4c-11-4-22-6-31-12v-1l30 7c10 1 17 1 26 4 18 0 37 3 55 4 5 1 8 4 13 2 9-2 19 2 29-1 9-2 25 3 32-7l8-4c-14-2-27 3-41 2-10 2-30-6-37 1-7 6-19-2-28-2s-32 5-26-9c8-2 17 3 25 4 2 0 4-2 5-3s-2-5-4-5c3-5 7-4 13 2l-5 3c13 6 33 2 48 1 6-1 11-1 16-5a6 6 0 0 1 4-1c17 0 33-1 50-3l20-8c14-5 30-6 44-12 4-2 8-5 14-3a4 4 0 0 0 3 0c46-22 94-47 127-87a503 503 0 0 0 84-154c15-45 19-93 19-140a434 434 0 0 0-17-152l-16-43c-10-25-26-47-39-71-3-5-6-10-7-16 0-2-2-4-4-6a218 218 0 0 0-41-36c-34-42-88-60-135-82 4-4 4-5-2-6-5-2-7-4-12-3l2 7-12-4 3-5c-6-2-14-6-20-4a18 18 0 0 0 8 4l-1 2a9 9 0 0 1-4 0c-10-4-21-2-31-5s-22-2-33-2v-3c5-1 33 0 34-5 1-8 12-3 17-5-18-14-37 0-56-3a6 6 0 0 1-4-1c-9-12-25-1-29-9-2-5 1-10 6-10 21 1 41-2 61 5 1 1 2 2 3 1 11-2 22 5 33 4s16 4 24 5c49 17 98 36 140 67a380 380 0 0 1 98 108q23 47 43 96c10 22 12 47 24 68 5 56 6 114-3 170-3 43-18 83-30 124-2 7-3 14-9 19-7 5-7 10-10 15-15 25-30 50-50 71a316 316 0 0 1-50 57c-12 7-25 15-39 19l5-9c6-2 11-4 14-10 14-4 25-14 34-24 10-10 21-22 26-36l-1-1c-20 20-36 44-59 61l-14 10c-7 2-8 5-5 9zm185-365c-2 8-6 17-2 26 4-10 2-21 2-31h-1zm-3 28c-7 12-2 24-7 37l-1 7c-3 18-10 36-9 54 9-4 24-87 17-98zM703 115c2 3 80 44 83 43-6-10-71-45-83-43zm124 89-2 1c3 5 12 18 18 15-1-6-11-12-16-16zm112 227h-2l1 5h1v-5zM590 95v1l4 1v-2zm349 347h-1v3h1zm-20-73h-1l1 2h1zM653 935c2-2 1-4-1-2-3 3 0 1 1 2zm33-11h-2 2zm-211 16v-1h-1l1 1zM216 206a1 1 0 0 1 1 0zm30 650 1 1h-2zm229 84-1-1h1zm-183-47Zm-18-12Zm-36-691Zm-23 640zm23-640-1 1zm-1 1-1 1 1-1zm-1 1zm-4 3zM450 78v1h4v-1zm95 20h-1l1 1 1-1h-1zm-140 17-10 3v1c5 1 8 0 10-4zm-137 49c-9 0-13 7-20 11-2 2-1 6-2 8l1 1c8-6 17-11 22-20h-1zm-36 31zm0 0c-4 0-7 5-12 2-4 1-7 6-10 9s-2 6 0 7c9-4 15-10 22-18zm297 10-9 3c-7 5-17 7-17 17 2 9 9 16 13 24 7 16 32 17 38-4 5-17-9-40-25-40zm-312 0v1h-1a1 1 0 0 1 1-1zm-13 15-6 6 1 1 6-6zm-10 9c-6 4-8 9-17 13-8 3-7 10-18 15-6 4 6 5 1 9-10 9-20 19-25 31a41 41 0 0 1-9 19c-2 4 2 11 6 5 8-11 11-26 19-37a87 87 0 0 0 17-21l11-13c4-8 10-13 16-20zm254 34-3 1c-11 2-29 1-30 16-6 48 43 45 46 2 0-8-4-19-13-19zm167 23c-14 0-27 9-28 23 6 9 14 16 24 18 12 0 21-7 24-19 5-16 7-13-9-20l-11-2zm-492 52c-7 9-7 1-10 5-4 8-12 15-14 23 3 7 0 14 1 20a178 178 0 0 0-4 26c-5 10-6 20-8 31 0 6-4 14-1 20h3a326 326 0 0 0 9-47c2-11-1-22 8-31 1-7 3-12 6-17 4-5 9-10 4-18 0-4 5-7 8-11zm286 20c-8 10-12 22-20 33-34 49-62 102-89 155-16 29-31 56-45 89s7 61 33 80c9 9 13-4 23-7 11-3 13-14 16-23 23-63 43-126 63-190 4-13 9-27 14-37 5-9 5-21 11-31a39 39 0 0 0 5-25c-2-15-3-31-11-44zm205 29c-2 7 0 15 0 22a36 36 0 0 0 0 14c2 12 0 24 2 35 11 49 27 97 33 147 5 44 24 84 31 127 2 14 9 37 25 40l19 2c12-1 25-9 35-16a8 8 0 0 0 4-5c1-47-21-90-37-134-20-49-29-102-52-150-11-32-24-71-60-82zm-104 32h-2l-1 4c0 13-5 27-10 40-22 45-20 96-23 145-3 55-6 110-11 164 1 33 10 31 36 44 9 6 18-3 27-3 6 1 9-2 10-6 7-32 4-66 6-99 0-41 6-82 1-122-1-35 4-69-2-104-1-11-3-21-8-31-4-6-15-32-23-32zM86 466a12 12 0 0 0-3 8l-7 38c-3 17 2 35 0 51s6 32 5 46c0 14 9 26 8 40 3 16 5 32 16 44 6 10 15 17 17 28 10 15 21 27 34 40l1-6c12 11 12 20 28 29-20-28-39-56-55-87-8-11-6-26-12-38-3-6-6-14-11-19-10-3-7-14-10-22 0-6 1-13-3-17 0-6 2-11-2-16 5-5 3-11 3-17-1-18-10-14-4-37 1-6-2-12-1-17 3-11 1-22 3-32-4-6-1-13-7-16zm108 330-1 2 5 3 2-2zm11 9c-8 2 4 12 11 10l-11-10zm-2 13a24 24 0 0 0 12 12c10-9-4-10-12-12zm20 13c4 4 7 10 14 11l3 4c-1 5-13-6-16-8l-1 2 1 3c8 4 12 12 20 16 9 5 8-5 16-1s12 16 23 14c7 2 13 11 20 10v-2c-16-5-29-16-42-24s-25-19-38-25zm23 25c1 0 2 0 1 1 0 2-1 1-2 0zm18 17-1 2 7 4 1-1zm10 8zm0 0 2 2v-1zm48 11c-6 0 0 11 9 7l-7-7h-2zm-30 1zm0 0 4 3 1-2zm70 31c-8 7 13 10 17 11v-1z"/></svg>