<svg xmlns="http://www.w3.org/2000/svg" viewBox="0 0 512 512"><path d="M18.6,379.9V348.2H34.2a20.9,20.9,0,0,1,9.3,1.9,14.7,14.7,0,0,1,6.3,5.5,15.1,15.1,0,0,1,2.3,8.4,15.6,15.6,0,0,1-2.3,8.5,14.7,14.7,0,0,1-6.3,5.5,20.9,20.9,0,0,1-9.3,1.9Zm10.7-8.3h4.5a8,8,0,0,0,3.9-.9,6.5,6.5,0,0,0,2.7-2.5,9.3,9.3,0,0,0,.9-4.2,8.6,8.6,0,0,0-.9-4.1,6.5,6.5,0,0,0-2.7-2.5,8,8,0,0,0-3.9-.9H29.3Z"/><path d="M67,371.8H82.8v8.1H56.4V348.2H82.2v8.1H67ZM66.2,360H80.4v7.7H66.2Z"/><path d="M114.6,379.9V356.5h-9.2v-8.3h29.2v8.3h-9.3v23.4Z"/><path d="M139.6,379.9V348.2h10.7v31.7Z"/><path d="M168.3,371.8h15.8v8.1H157.8V348.2h25.7v8.1H168.3Zm-.8-11.8h14.2v7.7H167.5Z"/><path d="M191.4,379.9V348.2h15.3a18.6,18.6,0,0,1,7.7,1.5,11.2,11.2,0,0,1,5,4.1,12.7,12.7,0,0,1,0,12.7,11.7,11.7,0,0,1-5,4,18.6,18.6,0,0,1-7.7,1.4h-9.4l4.8-4.4v12.4Zm10.7-11.2-4.8-4.8H206a5,5,0,0,0,3.3-1,3.6,3.6,0,0,0,1-2.7,3.7,3.7,0,0,0-1-2.8,5,5,0,0,0-3.3-1h-8.7l4.8-4.8Zm8.3,11.2-7.8-11.5h11.3l7.9,11.5Z"/><path d="M227.4,379.9V348.2h15.3a18.6,18.6,0,0,1,7.7,1.5,11.2,11.2,0,0,1,5,4.1,12.7,12.7,0,0,1,0,12.7,11.7,11.7,0,0,1-5,4,18.6,18.6,0,0,1-7.7,1.4h-9.3l4.7-4.4v12.4Zm10.7-11.2-4.7-4.8H242a5,5,0,0,0,3.3-1,3.7,3.7,0,0,0,1.1-2.7,3.8,3.8,0,0,0-1.1-2.8,5,5,0,0,0-3.3-1h-8.6l4.7-4.8Zm8.3,11.2-7.8-11.5h11.3l7.9,11.5Z"/><path d="M259.1,379.9l13.8-31.7h10.5l13.9,31.7h-11L276,353.3h4.2L270,379.9Zm8.2-5.5,2.7-7.7h14.6l2.7,7.7Z"/><path d="M325.3,379.9V366l2.4,6.4-14.4-24.2h11.3l9.8,16.5h-6.6l9.8-16.5h10.3l-14.3,24.2L336,366v13.9Z"/><path d="M367.4,379.9V348.2h15.3a18.6,18.6,0,0,1,7.7,1.5,11.2,11.2,0,0,1,5,4.1,12.7,12.7,0,0,1,0,12.7,11.2,11.2,0,0,1-5,4.1,18.6,18.6,0,0,1-7.7,1.5h-9.3l4.7-4.6v12.4Zm10.7-11.2-4.7-4.8H382a5,5,0,0,0,3.3-1,3.7,3.7,0,0,0,1.1-2.7,3.8,3.8,0,0,0-1.1-2.8,5,5,0,0,0-3.3-1h-8.6l4.7-4.8Z"/><path d="M393.3,379.9l13.9-31.7h10.5l13.9,31.7H420.5l-10.2-26.6h4.1l-10.2,26.6Zm8.3-5.5,2.7-7.7h14.6l2.7,7.7Z"/><path d="M442.4,380.6a17.8,17.8,0,0,1-6.7-1.2,12.6,12.6,0,0,1-5-3.5l5.8-6.8a11.1,11.1,0,0,0,2.5,2.4,4.6,4.6,0,0,0,2.5.8c2.3,0,3.5-1.4,3.5-4v-12H434.2v-8.1h21.3v19.5c0,4.3-1.1,7.6-3.3,9.7S446.7,380.6,442.4,380.6Z"/><path d="M454.9,379.9l13.9-31.7h10.5l13.8,31.7h-11l-10.2-26.6H476l-10.2,26.6Zm8.3-5.5,2.7-7.7h14.6l2.7,7.7Z"/><path d="M20.1,412.9H18.6l6.1-15.2,6,15.2H29.2L28,409.7H21.4Zm4.6-11.4-2.8,6.8h5.5Z"/><path d="M38.2,407.9v5H36.8V398h5.5a4.4,4.4,0,0,1,3.3,1.3,4.3,4.3,0,0,1,1.6,3.1,4.5,4.5,0,0,1-.9,3.5,4.8,4.8,0,0,1-3,1.9l3.9,5.1H45.4l-3.7-5Zm0-8.5v7.1h4.1a3.5,3.5,0,0,0,2.5-6,3.4,3.4,0,0,0-2.5-1.1Z"/><path d="M68.2,405.4a8.1,8.1,0,0,1-.5,2.7,7.9,7.9,0,0,1-1.4,2.3l1.9,2.5H66.4l-1.1-1.6a7.4,7.4,0,0,1-4.7,1.6,7.6,7.6,0,0,1-4.6-1.7,7,7,0,0,1-2.5-4.2,7,7,0,0,1,.6-4.9,7.2,7.2,0,0,1,3.5-3.4,7.5,7.5,0,0,1,4.9-.5,7.4,7.4,0,0,1,5.7,7.2Zm-4.3,1.8,1.5,2a5.8,5.8,0,0,0,1.4-4.2,6.2,6.2,0,0,0-2-4,5.5,5.5,0,0,0-2.6-1.4,5.8,5.8,0,0,0-5.6,1.5,5.4,5.4,0,0,0-1.6,2.6,6.1,6.1,0,0,0-.2,3,7,7,0,0,0,1.4,2.7,6.2,6.2,0,0,0,2.5,1.7,7,7,0,0,0,2.9.3,5.5,5.5,0,0,0,2.8-1.2l-2.2-3Z"/><path d="M82.4,408.1V398h1.4v10.1a5.3,5.3,0,0,1-.6,2.4,5.2,5.2,0,0,1-1.8,1.8,4.8,4.8,0,0,1-2.4.6,5.3,5.3,0,0,1-2.4-.6,5.8,5.8,0,0,1-1.7-1.8,4.4,4.4,0,0,1-.7-2.4V398h1.4v10.1a3.4,3.4,0,0,0,.5,1.7,3.4,3.4,0,0,0,1.2,1.2,3.7,3.7,0,0,0,1.7.5,3.4,3.4,0,0,0,1.7-.5,3,3,0,0,0,1.3-1.2A3.3,3.3,0,0,0,82.4,408.1Z"/><path d="M91.3,412.9H89.9V398h1.4Z"/><path d="M101.2,412.9V399.4H97.3V398h9.1v1.4h-3.8v13.5Z"/><path d="M121.4,411.5v1.4h-9V398h9v1.4h-7.5v7.1h6.6v1.4h-6.6v3.6Z"/><path d="M134.9,411.5a5.9,5.9,0,0,0,3.8-1.4l.9,1.1a7.4,7.4,0,0,1-4.3,1.7,8.1,8.1,0,0,1-4.5-1.3,7.3,7.3,0,0,1-2.9-3.6,7.6,7.6,0,0,1-.1-4.7,7.4,7.4,0,0,1,2.7-3.8,7.1,7.1,0,0,1,4.4-1.5,6.7,6.7,0,0,1,2.4.4,9.4,9.4,0,0,1,2.2,1.2l-.9,1.1a5.6,5.6,0,0,0-3.7-1.3,5.9,5.9,0,0,0-2.3.5,5.3,5.3,0,0,0-2,1.3,6.2,6.2,0,0,0-1.2,1.9,4.8,4.8,0,0,0-.5,2.3,4.9,4.9,0,0,0,.5,2.4,6.2,6.2,0,0,0,1.2,1.9,6.9,6.9,0,0,0,2,1.3A5.9,5.9,0,0,0,134.9,411.5Z"/><path d="M149.5,412.9V399.4h-3.8V398h9.1v1.4h-3.9v13.5Z"/><path d="M169,408.1V398h1.4v10.1a4.4,4.4,0,0,1-.7,2.4,5.8,5.8,0,0,1-1.7,1.8,5.3,5.3,0,0,1-2.4.6,4.8,4.8,0,0,1-2.4-.6,6.2,6.2,0,0,1-1.8-1.8,5.3,5.3,0,0,1-.6-2.4V398h1.4v10.1a3.4,3.4,0,0,0,.5,1.7,3.4,3.4,0,0,0,1.2,1.2,3.1,3.1,0,0,0,3.4,0,3.4,3.4,0,0,0,1.2-1.2A3.4,3.4,0,0,0,169,408.1Z"/><path d="M177.8,407.9v5h-1.4V398h5.5a4.8,4.8,0,0,1,3.4,1.3,5.2,5.2,0,0,1,1.6,3.1,5.4,5.4,0,0,1-.9,3.5,5.4,5.4,0,0,1-3,1.9l3.8,5.1h-1.7l-3.8-5Zm0-8.5v7.1h4.1a3.5,3.5,0,0,0,2.6-1,3.6,3.6,0,0,0,0-5,3.6,3.6,0,0,0-2.6-1.1Z"/><path d="M194.5,412.9H193l6.1-15.2,6,15.2h-1.5l-1.3-3.2h-6.6Zm4.6-11.4-2.8,6.8h5.5Z"/><path d="M234.9,398h1.6l-5.1,9.3v5.6h-1.5v-5.4l-5.1-9.5h1.6l4.2,7.8Z"/><path d="M266.7,407.9a4.6,4.6,0,0,1-2.5,4.3,5.2,5.2,0,0,1-2.5.7h-5.5V398h5.5a3.4,3.4,0,0,1,1.7.5,2.9,2.9,0,0,1,1.2,1.5,3.7,3.7,0,0,1,.2,1.8,5.1,5.1,0,0,1-.9,1.6,4.6,4.6,0,0,1,2.1,1.8A5,5,0,0,1,266.7,407.9Zm-9.1-8.5v3.5h4.1a1.8,1.8,0,0,0,0-3.5Zm0,4.9v7.2h4.1a3.6,3.6,0,0,0,2.6-1.1,3.6,3.6,0,0,0,0-5,3.6,3.6,0,0,0-2.6-1.1Z"/><path d="M274.2,412.9h-1.4V398h1.4Z"/><path d="M290.6,412.3a7.3,7.3,0,0,1-5.8,0,7.8,7.8,0,0,1-2.4-1.6,10,10,0,0,1-1.6-2.4,7.2,7.2,0,0,1-.6-2.9,6.7,6.7,0,0,1,.6-2.8,8.4,8.4,0,0,1,1.6-2.4,7.8,7.8,0,0,1,2.4-1.6,7.3,7.3,0,0,1,5.8,0,6.3,6.3,0,0,1,2.3,1.6,7.7,7.7,0,0,1,2.2,5.2,6.8,6.8,0,0,1-.6,2.9,7.8,7.8,0,0,1-1.6,2.4A6.3,6.3,0,0,1,290.6,412.3Zm-2.9-12.9a6.1,6.1,0,0,0-3,.8,5.8,5.8,0,0,0-2.2,2.2,5.6,5.6,0,0,0-.8,3,6.4,6.4,0,0,0,.4,2.4,9.1,9.1,0,0,0,1.3,1.9,8,8,0,0,0,1.9,1.3,6.9,6.9,0,0,0,2.4.5,6.1,6.1,0,0,0,3-.8,6.6,6.6,0,0,0,2.2-2.2,6.8,6.8,0,0,0,.8-3.1,6.4,6.4,0,0,0-.5-2.3,5,5,0,0,0-1.3-1.9,4.3,4.3,0,0,0-1.9-1.3A5.9,5.9,0,0,0,287.7,399.4Z"/><path d="M308.6,411.5a5.9,5.9,0,0,0,3.8-1.4l.9,1.1a7.2,7.2,0,0,1-8.8.4,7.3,7.3,0,0,1-2.9-3.6,6.9,6.9,0,0,1-.1-4.7,6.4,6.4,0,0,1,2.7-3.8,6.9,6.9,0,0,1,4.4-1.5,6.7,6.7,0,0,1,2.4.4,9.4,9.4,0,0,1,2.2,1.2l-.9,1.1a5.6,5.6,0,0,0-3.7-1.3,6.9,6.9,0,0,0-2.4.5,5.9,5.9,0,0,0-1.9,1.3,9.1,9.1,0,0,0-1.3,1.9,6.2,6.2,0,0,0-.4,2.3,6.4,6.4,0,0,0,.4,2.4,9.1,9.1,0,0,0,1.3,1.9,8,8,0,0,0,1.9,1.3A6.9,6.9,0,0,0,308.6,411.5Z"/><path d="M328.6,412.3a6.8,6.8,0,0,1-2.9.6,6.7,6.7,0,0,1-2.8-.6,6,6,0,0,1-2.4-1.6,7.8,7.8,0,0,1-1.6-2.4,7.2,7.2,0,0,1-.6-2.9,7.7,7.7,0,0,1,2.2-5.2,6,6,0,0,1,2.4-1.6,6.7,6.7,0,0,1,2.8-.6,6.8,6.8,0,0,1,2.9.6,7.8,7.8,0,0,1,2.4,1.6,7.7,7.7,0,0,1,2.2,5.2,6.8,6.8,0,0,1-.6,2.9,7.4,7.4,0,0,1-4,4Zm-2.9-12.9a6.7,6.7,0,0,0-3,.8,7.7,7.7,0,0,0-2.2,2.2,6.7,6.7,0,0,0-.8,3,6.4,6.4,0,0,0,.5,2.4,5,5,0,0,0,1.3,1.9,6.4,6.4,0,0,0,1.9,1.3,5.9,5.9,0,0,0,2.3.5,6.8,6.8,0,0,0,3.1-.8,7.7,7.7,0,0,0,2.2-2.2,6.8,6.8,0,0,0,.8-3.1,6.1,6.1,0,0,0-1.8-4.2,5,5,0,0,0-1.9-1.3A6.4,6.4,0,0,0,325.7,399.4Z"/><path d="M340.6,401.8v11.1h-1.4V397.8l9,11.2V398h1.4v14.9Z"/><path d="M359.1,411.5h.1a3.2,3.2,0,0,0,1.8-.6,3.9,3.9,0,0,0,1-1.6,3.1,3.1,0,0,0-.1-1.9,3.3,3.3,0,0,0-1.2-1.4l-3.4-1.9a3.4,3.4,0,0,1-1.3-1.6,3.1,3.1,0,0,1-.2-2.1,3,3,0,0,1,1.2-1.7,2.9,2.9,0,0,1,2-.7h.3a4.2,4.2,0,0,1,1.6.4,3.4,3.4,0,0,1,1.2,1.2l-1.2.7c-.2-.2-.4-.5-.7-.6a1.6,1.6,0,0,0-.9-.3H359a1.5,1.5,0,0,0-1.1.4,1.7,1.7,0,0,0-.7,1,1.7,1.7,0,0,0,.1,1.2,1.4,1.4,0,0,0,.8.9l3.3,1.9a4.6,4.6,0,0,1,1.8,2.1,4.4,4.4,0,0,1,.2,2.8,4.6,4.6,0,0,1-1.6,2.3,3.9,3.9,0,0,1-2.6.9h-.1a4.5,4.5,0,0,1-1.9-.5,4.4,4.4,0,0,1-1.5-1.2l1.1-.9a4.3,4.3,0,0,0,1,.9Z"/><path d="M373.4,412.9V399.4h-3.8V398h9v1.4h-3.8v13.5Z"/><path d="M386.1,407.9v5h-1.4V398h5.5a4.4,4.4,0,0,1,3.3,1.3,4.3,4.3,0,0,1,1.6,3.1,4.5,4.5,0,0,1-.9,3.5,4.8,4.8,0,0,1-2.9,1.9l3.8,5.1h-1.8l-3.7-5Zm0-8.5v7.1h4.1a3.3,3.3,0,0,0,2.5-1,3.6,3.6,0,0,0-2.5-6.1Z"/><path d="M409.4,408.1V398h1.4v10.1a5.3,5.3,0,0,1-.6,2.4,6.2,6.2,0,0,1-1.8,1.8,5.1,5.1,0,0,1-4.8,0,7.7,7.7,0,0,1-1.8-1.8,5.3,5.3,0,0,1-.6-2.4V398h1.4v10.1a3.4,3.4,0,0,0,.5,1.7,3.4,3.4,0,0,0,1.2,1.2,3.1,3.1,0,0,0,3.4,0,3.4,3.4,0,0,0,1.2-1.2A3.4,3.4,0,0,0,409.4,408.1Z"/><path d="M424.3,411.5a5.9,5.9,0,0,0,3.8-1.4l.9,1.1a7.7,7.7,0,0,1-4.4,1.7,7.6,7.6,0,0,1-4.4-1.3,6.8,6.8,0,0,1-2.9-3.6,6.9,6.9,0,0,1-.1-4.7,6.7,6.7,0,0,1,2.6-3.8,7.4,7.4,0,0,1,4.5-1.5,6.7,6.7,0,0,1,2.4.4,7.2,7.2,0,0,1,2.1,1.2l-.8,1.1a5.6,5.6,0,0,0-3.7-1.3,6.9,6.9,0,0,0-2.4.5,5,5,0,0,0-1.9,1.3,6,6,0,0,0,1.9,9.8A6.9,6.9,0,0,0,424.3,411.5Z"/><path d="M441.4,411.5a5.7,5.7,0,0,0,3.8-1.4l.9,1.1a7.4,7.4,0,0,1-4.3,1.7,8.1,8.1,0,0,1-4.5-1.3,7.3,7.3,0,0,1-2.9-3.6,7.6,7.6,0,0,1-.1-4.7,7.4,7.4,0,0,1,2.7-3.8,7.1,7.1,0,0,1,4.4-1.5,6.1,6.1,0,0,1,2.4.4,9.4,9.4,0,0,1,2.2,1.2l-.9,1.1a5.6,5.6,0,0,0-3.7-1.3,5.9,5.9,0,0,0-2.3.5,4.3,4.3,0,0,0-1.9,1.3,5,5,0,0,0-1.3,1.9,6.4,6.4,0,0,0-.5,2.3,6.4,6.4,0,0,0,.5,2.4,5,5,0,0,0,1.3,1.9,5.3,5.3,0,0,0,1.9,1.3A5.9,5.9,0,0,0,441.4,411.5Z"/><path d="M453.6,412.9h-1.4V398h1.4Z"/><path d="M467.1,398a7.2,7.2,0,0,1,2.9.6,6.3,6.3,0,0,1,3.9,3.9,7.3,7.3,0,0,1,0,5.8,6.3,6.3,0,0,1-3.9,3.9,7.3,7.3,0,0,1-5.8,0,6.1,6.1,0,0,1-2.3-1.5,7.8,7.8,0,0,1-1.6-2.4,7.3,7.3,0,0,1,0-5.8,7.8,7.8,0,0,1,1.6-2.4,7.6,7.6,0,0,1,2.3-1.5A7.2,7.2,0,0,1,467.1,398Zm-2.3,12.9a5.5,5.5,0,0,0,4.6,0,4.8,4.8,0,0,0,3.2-3.2,5.5,5.5,0,0,0,0-4.6,4.8,4.8,0,0,0-3.2-3.2,5.5,5.5,0,0,0-4.6,0,4.8,4.8,0,0,0-3.2,3.2,5.5,5.5,0,0,0,0,4.6,4.8,4.8,0,0,0,3.2,3.2Zm3.9-16.3-2.6,2.2-.6-.8,2.6-2.2Z"/><path d="M482,401.8v11.1h-1.4V397.8l9,11.2V398H491v14.9Z"/><path d="M231.1,271.1c1.3-13.5,1.8-27.2,2.7-40.8s.3-24.9,5.7-36.3c1.1-3.2,2.5-6.5,2.6-10,0-.3.1-.9.2-.9,2-.9,5.2,6.4,6.2,8a25,25,0,0,1,2,7.7c1.5,8.6.1,17.2.5,25.8,1.1,10.2-.2,20.4-.3,30.6-.5,8.1.3,16.4-1.6,24.4a2,2,0,0,1-2.4,1.7c-2.3,0-4.5,2.1-6.8.6C233.5,278.8,231.3,279.2,231.1,271.1Z"/><path d="M296,271.4l-4.6-.5c-4.2-.6-5.7-6.3-6.4-9.8-1.7-10.8-6.4-20.8-7.7-31.7-1.4-12.5-5.4-24.4-8.3-36.6-.5-2.8,0-5.8-.4-8.6a9.2,9.2,0,0,1-.1-3.7c.2-1.7-.5-3.5.2-5.3,8.8,2.6,12.1,12.5,14.9,20.4,5.6,12,7.9,25.2,12.9,37.4s9.4,21.6,9.3,33.3a2.2,2.2,0,0,1-1,1.3C302.2,269.3,299,271.1,296,271.4Z"/><path d="M217.6,167.9c2,3.4,2.1,7.1,2.8,10.9a10.2,10.2,0,0,1-1.3,6.4c-1.4,2.3-1.6,5.3-2.8,7.7a72.3,72.3,0,0,0-3.5,9.1c-5,15.9-9.9,31.8-15.6,47.4-.9,2.2-1.4,4.9-3.9,5.7s-3.6,3.9-5.9,1.8c-6.4-4.7-11.7-11.9-8.2-20s7.4-14.9,11.2-22.2c6.8-13.2,13.7-26.4,22.3-38.5C214.5,173.4,215.5,170.5,217.6,167.9Z"/><path d="M139,198.8c-.5,2.6,0,5.3-.8,8-.3,1.2.6,2.8.2,4.1-1.4,5.8.8,4.8,1,9.2,0,1.6.6,3.1-.6,4.4.8,1.2.4,2.6.3,3.9s.9,2.9.7,4.3.1,4.7,2.6,5.4,2,3.2,2.8,4.8c1.4,3.1,1.1,6.6,2.9,9.4a233.4,233.4,0,0,0,13.6,21.8c-4-2.5-3.8-4.5-6.7-7.3l-.5,1.5a76.9,76.9,0,0,1-8.2-9.9c-.8-2.8-2.9-4.7-4.5-6.9s-3.1-7.1-4-11-1.8-6.6-1.8-10.1-1.9-7.5-1.4-11.4-.6-8.5.2-12.7,1.1-6.3,1.6-9.5a2.7,2.7,0,0,1,.7-2C138.7,195.6,137.9,197.3,139,198.8Z"/><path d="M241,134.7c.1-2.3,2.6-3,4.1-4.2,5.1-2.8,10,4.2,8.5,9.3s-7.6,5.1-9.4,1C243.2,138.7,241.6,137,241,134.7Z"/><path d="M230.5,149.1c-.8,10.6-12.9,11.3-11.5-.7.5-3.6,4.8-3.3,7.5-3.9S230.6,146.8,230.5,149.1Z"/><path d="M267.9,160.1c-2.6-.3-4.5-2-5.9-4.4.2-4.5,5.6-6.8,9.6-5.1s3.5,1,2.4,4.8A6.1,6.1,0,0,1,267.9,160.1Z"/><path d="M146.8,163.2c-.6.9-1.8,1.9-1.9,2.9s-.1,3.1-1,4.3a11.1,11.1,0,0,0-1.6,4.2c-2,2.3-1.5,5.1-1.8,7.8a77.1,77.1,0,0,1-2.4,11.6h-.5c-.8-1.5,0-3.3.1-4.9a29.7,29.7,0,0,1,1.9-7.8,46.2,46.2,0,0,1,1.1-6.3c-.3-1.7.6-3.3-.2-5s2.4-3.8,3.4-5.7.8.8,2.5-1.4Z"/><path d="M164.2,136.1c-1.3,1.6-2.9,3-3.8,5s-2,2-2.7,3.1a21.8,21.8,0,0,1-4.2,5.3c-2,2.8-2.8,6.4-4.7,9.2s-2.2-.2-1.6-1.3a10.2,10.2,0,0,0,2.2-4.7,19.7,19.7,0,0,1,6.2-7.5c1.3-1.2-1.8-1.5-.2-2.5s2.5-2.9,4.5-3.7,2.8-2.2,4.2-3.1Z"/><path d="M171.5,287.5c.7.4,3.7,3.2,4,1.9s-.4-.9-.7-.9c-1.8-.3-2.5-1.8-3.6-2.9,3.4,1.6,6.4,4.2,9.7,6.3s6.4,4.8,10.2,6.1v.4c-1.7.2-3.2-2-4.8-2.4s-3.7-2.6-5.8-3.6-1.7,1.5-3.9.4-3-3.2-5-4.1c-.2-.2-.2-.6-.4-.8Zm5.6,4.4-.2.3c.1.2.4.3.5,0S177.2,292,177.1,291.9Z"/><path d="M182.8,119.5c-1.4,2.3-3.6,3.6-5.5,5.1l-.3-.2c.2-.6.1-1.6.6-1.9S180.4,119.4,182.8,119.5Z"/><path d="M173.5,127.3A19.1,19.1,0,0,1,168,132a1.1,1.1,0,0,1,.1-1.8c.7-.7,1.5-2.2,2.6-2.4s1.8-.4,2.8-.4Zm-3.8,2.8h.1v-.2c-.1.1-.2.1-.1.2Z"/><path d="M169.2,285.5a5.7,5.7,0,0,1-2.8-3.1C168.4,283,171.8,283.1,169.2,285.5Z"/><path d="M205.8,309l4.4,2.4v.2C209.1,311.3,203.9,310.7,205.8,309Z"/><path d="M169.4,281.6c-1.6.7-4.6-1.8-2.6-2.4S168.4,280.7,169.4,281.6Z"/><path d="M198.3,302.6c-2.5,1-4-2.3-1.9-1.8Z"/><path d="M214.1,108.1l2.5-.8c-.5,1.1-1.2,1.3-2.4,1.2Z"/><path d="M181.5,296.2l1.8,1.1-.3.4-1.7-1.2Z"/><path d="M165.2,278.2l-1.3-.8.3-.4,1.3.7Z"/><path d="M166.7,133.8l-1.5,1.4-.2-.2,1.5-1.4Z"/><path d="M227.7,98.1l1,.2v.2h-1Z"/><path d="M188.4,301.1l1.3.3-.3.5-1-.8Z"/><path d="M251.4,103.5l-.2-.3c.2-.1.4-.2.5.1Z"/><path d="M183.9,298.1l.7.3-.2.2-.4-.6Z"/><polygon points="203.3 308.7 203.2 308.8 203.2 308.7 203.3 308.7"/><path d="M174.7,126.4c-.1.1-.2.2-.2.3Z"/><path d="M175,126.2c-.1,0-.3.1-.3.2Z"/><path d="M233.9,312.7h0Z"/><path d="M177.1,291.9l.3.3c0,.2-.4.2-.5,0Z"/><path d="M169.7,130.1h.1v.2Z"/><path d="M303.5,301.1l-3,1.6c-2.4.8.9,2.6-1.4,3.5-4.1,1.8-8.2,3.8-12.5,5.5-8.3,2.5-16.8,4.6-25.5,5.1-5.6-.2-11.1,1.3-16.6,1-1.2,0-2.3-.7-3.5-1s-3,.1-4.5-.1-.9-.2-1.2-.1a5,5,0,0,1-3.6.1c-1.2-.3-2,.1-2.9-.2s-2.8-.5-4.2-.5a15.2,15.2,0,0,1-4.6-1c-2.5-.9-5.4-1.4-7.7-2.9v-.4c2.5.5,5,1.5,7.5,1.7a40.8,40.8,0,0,1,6.4,1c4.6,0,9.2.9,13.8,1.3,1.1.1,2,.8,3.2.3s4.8.5,7.1-.2,6.2.7,8.1-1.7c.4-.4,1.2-.5,1.9-1-3.4-.5-6.8.6-10.2.5s-7.6-1.5-9.3.2-4.8-.4-6.9-.4-8,1.1-6.4-2.3c1.9-.4,4.2.8,6.2.9.4.1,1-.3,1.3-.6s-.6-1.3-1-1.4,1.7-1,3.1.7l-1.2.7c3.4,1.4,8.3.3,12,.1a7.2,7.2,0,0,0,4-1.2,1.6,1.6,0,0,1,.9-.3,85.1,85.1,0,0,0,12.4-.7,52.1,52.1,0,0,1,5-2c3.6-1.2,7.5-1.4,10.9-2.9,1.2-.5,2.2-1.2,3.6-.7a1.1,1.1,0,0,0,.8-.1c11.5-5.4,23.3-11.6,31.5-21.7a124,124,0,0,0,21-38.2c3.6-11.2,4.8-23.3,4.8-35a112.4,112.4,0,0,0-1-23.2,67.3,67.3,0,0,0-3.4-14.6c-1.2-3.5-2.7-7-3.9-10.6-2.4-6.3-6.5-11.8-9.8-17.8a10.5,10.5,0,0,1-1.7-3.9c0-.5-.6-1.2-1-1.6a51.4,51.4,0,0,0-10.2-9c-8.4-10.3-21.8-14.8-33.6-20.2,1-1.2,1-1.3-.4-1.7s-1.8-.9-3.1-.6l.5,1.6-2.8-1,.7-1.1c-1.5-.7-3.6-1.6-5.2-.9a4,4,0,0,0,2,.9v.5h-1.1c-2.4-1.1-5.2-.6-7.7-1.4s-5.4-.3-8.3-.5v-.5c1.4-.3,8.4-.2,8.6-1.4s2.8-.7,4.1-1.2c-4.4-3.4-9.2,0-13.9-.7a1.5,1.5,0,0,1-1-.3c-2.3-2.9-6.3-.3-7.1-2.3a1.7,1.7,0,0,1,1.4-2.5c5.1.3,10.3-.4,15.1,1.4a3.2,3.2,0,0,0,.9.3c2.8-.7,5.4,1.1,8.1.9s4,1,6,1.3c12.2,4,24.4,8.8,34.8,16.5a94,94,0,0,1,24.4,27q5.8,11.7,10.8,23.7c2.4,5.6,3.1,11.8,5.8,17.1,1.4,13.9,1.6,28.3-.5,42.3-.9,10.6-4.6,20.6-7.6,30.8-.5,1.7-.6,3.5-2.3,4.7s-1.6,2.5-2.4,3.8c-3.7,6.2-7.4,12.4-12.3,17.7a80.5,80.5,0,0,1-12.5,14.2c-3.2,1.6-6.3,3.8-9.8,4.7a23.9,23.9,0,0,1,1.3-2.1,6.1,6.1,0,0,0,3.5-2.6c3.4-1,6-3.5,8.4-6s5.3-5.4,6.5-8.9l-.3-.2c-5,4.8-8.9,10.9-14.6,15.1l-3.5,2.6C303.1,299.4,302.7,300.1,303.5,301.1Zm46-90.9c-.6,2.1-1.5,4.2-.4,6.4,1-2.5.3-5,.5-7.6h-.4Zm-.8,7.1c-1.6,3-.4,6-1.7,9.1-.2.5,0,1.2-.2,1.8-.9,4.5-2.4,8.9-2.3,13.5C346.9,240.6,350.5,220,348.7,217.3Zm-58-109.9c.6.7,19.9,10.9,20.7,10.8C310,115.6,293.7,106.9,290.7,107.4Zm30.9,22.2-.3.3c.7,1.1,2.9,4.4,4.3,3.8C325.5,132.1,322.8,130.5,321.6,129.6Zm27.9,56.5h-.3v1.2h.4A4.9,4.9,0,0,0,349.5,186.1Zm-86.9-83.7v.4l1.1.2v-.5Zm86.9,86.5h-.3v.7h.2Zm-4.8-18.3h-.3l.2.5h.2Zm-66.5,141c.6-.5.3-1-.2-.5S278.1,311.4,278.2,311.6Zm8.3-2.7c-.1-.3-.2-.2-.4-.1s.2.2.4.1Zm-52.6,3.8h0Z"/></svg>